<svg width="99" height="290" viewBox="0 0 99 290" fill="none" xmlns="http://www.w3.org/2000/svg">
<path d="M34.5694 270.012V252.012H41.5694V270.012C41.9027 271.679 42.5694 275.712 42.5694 278.512C42.5694 281.312 39.9027 282.679 38.5694 283.012C37.2361 283.012 34.4694 282.112 34.0694 278.512C33.6694 274.912 34.2361 271.345 34.5694 270.012Z" fill="white" stroke="#3568FD" stroke-width="2" stroke-linecap="round" stroke-linejoin="round"/>
<path d="M32.5693 283.512C32.1693 280.712 33.0693 277.345 33.5693 276.012C34.4027 277.845 36.0694 282.012 38.0694 282.012C40.0694 282.012 42.0694 277.845 42.5694 276.012C42.9027 277.512 43.4694 281.112 43.0694 283.512C42.6694 285.912 39.5694 287.512 38.0694 288.012C36.4027 287.679 32.9693 286.312 32.5693 283.512Z" fill="white" stroke="#3568FD" stroke-width="2" stroke-linecap="round" stroke-linejoin="round"/>
<path d="M50.5694 270.012V252.012H57.5694V270.012C57.9027 271.679 58.5694 275.712 58.5694 278.512C58.5694 281.312 55.9027 282.679 54.5694 283.012C53.2361 283.012 50.4694 282.112 50.0694 278.512C49.6694 274.912 50.2361 271.345 50.5694 270.012Z" fill="white" stroke="#3568FD" stroke-width="2" stroke-linecap="round" stroke-linejoin="round"/>
<path d="M48.5693 283.512C48.1693 280.712 49.0693 277.345 49.5693 276.012C50.4027 277.845 52.0694 282.012 54.0694 282.012C56.0694 282.012 58.0694 277.845 58.5694 276.012C58.9027 277.512 59.4694 281.112 59.0694 283.512C58.6694 285.912 55.5694 287.512 54.0694 288.012C52.4027 287.679 48.9693 286.312 48.5693 283.512Z" fill="white" stroke="#3568FD" stroke-width="2" stroke-linecap="round" stroke-linejoin="round"/>
<path d="M25.6241 65.997C25.6241 55.9404 36.8454 52.402 42.456 50.9122H57.0437C61.1581 51.4709 69.9481 54.1526 72.1924 60.41C74.9977 68.2318 72.1924 124.66 72.1924 129.13C72.1924 133.599 75.5588 169.356 77.242 181.089C78.5885 190.475 78.4284 245.538 77.4094 265.917C72.3145 267.955 70.8954 266.614 64.1626 267.955C57.4299 269.296 52.1219 269.533 51.9349 268.974C45.5762 270.278 47.6408 270.056 42.2546 270.503C36.8683 270.95 27.4943 271.434 22.8188 270.503C23.9065 265.917 22.8188 253.18 23.9065 246.047C26.3835 229.804 22.2577 143.097 22.8188 136.393C23.3799 129.688 25.6241 71.0253 25.6241 65.997Z" fill="#F0F0F0" stroke="#3568FD" stroke-width="2" stroke-linecap="round" stroke-linejoin="round"/>
<path d="M34.7635 53.8266C36.4754 80.0622 38.6586 134.112 33.6507 146.41C28.8703 158.149 27.9225 212.958 28.0455 244.645C27.5072 244.57 26.9682 244.492 26.4327 244.411C22.5709 243.822 18.8043 243.09 16.4631 242.584C14.4179 242.659 11.3105 242.498 8.41952 241.766C5.52978 241.033 2.52487 239.647 1.31793 237.014C1.17123 236.694 1.10096 236.302 1.06052 235.926C1.01782 235.529 0.999191 235.055 1.00068 234.522C1.0037 233.455 1.08494 232.076 1.22957 230.446C1.51918 227.182 2.07148 222.831 2.80454 217.766C4.27134 207.632 6.47169 194.581 8.77584 181.53C13.3911 155.389 18.4114 129.306 18.8448 126.395C19.71 120.582 24.6599 69.3532 24.891 64.9769C25.1505 60.0651 28.476 56.9493 32.2357 54.975C33.0551 54.5448 33.906 54.166 34.7635 53.8266Z" fill="white"/>
<path d="M34.7635 53.8266L35.7619 53.7495C35.7412 53.4327 35.5709 53.1465 35.303 52.9784C35.0351 52.8104 34.7016 52.7805 34.4047 52.8981L34.7635 53.8266ZM33.6507 146.41L34.5768 146.777L34.5768 146.777L33.6507 146.41ZM28.0455 244.645L27.8944 245.635C28.1835 245.675 28.4774 245.587 28.6989 245.394C28.9203 245.201 29.0472 244.921 29.046 244.629L28.0455 244.645ZM26.4327 244.411L26.2699 245.399L26.27 245.399L26.4327 244.411ZM16.4631 242.584L16.6858 241.607C16.6049 241.59 16.5219 241.583 16.4389 241.586L16.4631 242.584ZM8.41952 241.766L8.16245 242.735L8.16249 242.735L8.41952 241.766ZM1.31793 237.014L0.407241 237.439L0.40733 237.44L1.31793 237.014ZM1.06052 235.926L0.0656506 236.045L0.0656607 236.045L1.06052 235.926ZM1.00068 234.522L0.000114259 234.531L0.000114258 234.532L1.00068 234.522ZM1.22957 230.446L0.232912 230.37L0.232911 230.37L1.22957 230.446ZM2.80454 217.766L1.8143 217.635L1.8143 217.635L2.80454 217.766ZM8.77584 181.53L7.79054 181.368V181.368L8.77584 181.53ZM18.8448 126.395L19.8344 126.53L19.8344 126.53L18.8448 126.395ZM24.891 64.9769L23.8919 64.9363L23.8919 64.9364L24.891 64.9769ZM32.2357 54.975L31.7786 54.0916L31.7786 54.0916L32.2357 54.975ZM34.7635 53.8266L33.765 53.9037C34.6202 67.0092 35.5929 87.0602 35.7265 105.364C35.7933 114.517 35.6502 123.219 35.1796 130.392C34.7058 137.613 33.9065 143.141 32.7245 146.043L33.6507 146.41L34.5768 146.777C35.8988 143.53 36.7046 137.69 37.1764 130.498C37.6515 123.257 37.7946 114.501 37.7276 105.325C37.5936 86.9711 36.6187 66.8796 35.7619 53.7495L34.7635 53.8266ZM33.6507 146.41L32.7245 146.043C31.4671 149.131 30.503 154.898 29.7457 162.164C28.9835 169.477 28.4196 178.442 28.0097 188.016C27.1897 207.168 26.9834 228.808 27.0449 244.661L28.0455 244.645L29.046 244.629C28.9846 228.794 29.1908 207.187 30.009 188.078C30.4181 178.522 30.9799 169.603 31.736 162.347C32.497 155.045 33.444 149.559 34.5768 146.777L33.6507 146.41ZM28.0455 244.645L28.1965 243.655C27.6599 243.58 27.1253 243.503 26.5954 243.423L26.4327 244.411L26.27 245.399C26.8111 245.481 27.3545 245.559 27.8944 245.635L28.0455 244.645ZM26.4327 244.411L26.5954 243.423C22.7565 242.837 19.0101 242.109 16.6858 241.607L16.4631 242.584L16.2404 243.561C18.5985 244.07 22.3853 244.806 26.2699 245.399L26.4327 244.411ZM16.4631 242.584L16.4389 241.586C14.4627 241.657 11.4538 241.5 8.67655 240.797L8.41952 241.766L8.16249 242.735C11.1672 243.496 14.3731 243.66 16.4873 243.583L16.4631 242.584ZM8.41952 241.766L8.67658 240.797C5.8359 240.077 3.23587 238.786 2.22852 236.589L1.31793 237.014L0.40733 237.44C1.81387 240.507 5.22365 241.99 8.16245 242.735L8.41952 241.766ZM1.31793 237.014L2.22861 236.589C2.14991 236.418 2.09273 236.155 2.05539 235.807L1.06052 235.926L0.0656607 236.045C0.109195 236.45 0.192559 236.971 0.407241 237.439L1.31793 237.014ZM1.06052 235.926L2.0554 235.807C2.01791 235.459 1.99982 235.024 2.00124 234.513L1.00068 234.522L0.000114258 234.532C-0.00143372 235.086 0.0177269 235.599 0.0656506 236.045L1.06052 235.926ZM1.00068 234.522L2.00124 234.513C2.00414 233.487 2.08264 232.141 2.22622 230.523L1.22957 230.446L0.232911 230.37C0.0872434 232.012 0.00324779 233.423 0.000114259 234.531L1.00068 234.522ZM1.22957 230.446L2.22622 230.523C2.51339 227.286 3.06258 222.957 3.79478 217.898L2.80454 217.766L1.8143 217.635C1.08039 222.706 0.524978 227.079 0.232912 230.37L1.22957 230.446ZM2.80454 217.766L3.79478 217.898C5.25928 207.779 7.45742 194.741 9.76114 181.692L8.77584 181.53L7.79054 181.368C5.48595 194.422 3.2834 207.485 1.8143 217.635L2.80454 217.766ZM8.77584 181.53L9.76114 181.692C14.3684 155.596 19.399 129.455 19.8344 126.53L18.8448 126.395L17.8551 126.26C17.4238 129.156 12.4138 155.181 7.79054 181.368L8.77584 181.53ZM18.8448 126.395L19.8344 126.53C20.7049 120.682 25.6576 69.4213 25.8902 65.0174L24.891 64.9769L23.8919 64.9364C23.6621 69.2851 18.7151 120.482 17.8551 126.26L18.8448 126.395ZM24.891 64.9769L25.8902 65.0174C26.1227 60.6168 29.0811 57.755 32.6928 55.8585L32.2357 54.975L31.7786 54.0916C27.871 56.1435 24.1784 59.5135 23.8919 64.9363L24.891 64.9769ZM32.2357 54.975L32.6928 55.8585C33.4738 55.4484 34.2908 55.0843 35.1223 54.7551L34.7635 53.8266L34.4047 52.8981C33.5213 53.2477 32.6365 53.6412 31.7786 54.0916L32.2357 54.975Z" fill="#3568FD"/>
<path d="M64.0173 52.9336C62.3054 79.1692 60.1221 133.219 65.1301 145.517C69.9104 157.256 70.8582 212.065 70.7353 243.752C71.2736 243.677 71.8126 243.599 72.3481 243.518C76.2099 242.929 79.9765 242.197 82.3177 241.691C84.3629 241.766 87.4703 241.605 90.3612 240.873C93.251 240.14 96.2559 238.754 97.4628 236.121C97.6095 235.801 97.6798 235.409 97.7202 235.033C97.7629 234.636 97.7816 234.162 97.7801 233.629C97.7771 232.562 97.6958 231.183 97.5512 229.553C97.2616 226.289 96.7093 221.938 95.9762 216.873C94.5094 206.739 92.3091 193.688 90.0049 180.637C85.3896 154.495 80.3694 128.412 79.936 125.502C79.0707 119.689 74.1209 68.4601 73.8897 64.0839C73.6302 59.1722 70.3047 56.0563 66.5451 54.082C65.7256 53.6518 64.8747 53.273 64.0173 52.9336Z" fill="white"/>
<path d="M64.0173 52.9336L63.0189 52.8565C63.0395 52.5397 63.2099 52.2535 63.4778 52.0854C63.7457 51.9174 64.0792 51.8875 64.3761 52.0051L64.0173 52.9336ZM65.1301 145.517L64.2039 145.884L64.2039 145.884L65.1301 145.517ZM70.7353 243.752L70.8863 244.742C70.5973 244.782 70.3033 244.694 70.0819 244.501C69.8604 244.308 69.7336 244.028 69.7347 243.736L70.7353 243.752ZM72.3481 243.518L72.5108 244.506L72.5108 244.506L72.3481 243.518ZM82.3177 241.691L82.0949 240.714C82.1759 240.697 82.2588 240.69 82.3418 240.693L82.3177 241.691ZM90.3612 240.873L90.6183 241.842L90.6183 241.842L90.3612 240.873ZM97.4628 236.121L98.3735 236.546L98.3734 236.547L97.4628 236.121ZM97.7202 235.033L98.7151 235.152L98.7151 235.152L97.7202 235.033ZM97.7801 233.629L98.7806 233.638L98.7806 233.639L97.7801 233.629ZM97.5512 229.553L98.5478 229.477L98.5479 229.477L97.5512 229.553ZM95.9762 216.873L96.9665 216.742L96.9665 216.742L95.9762 216.873ZM90.0049 180.637L90.9902 180.475V180.475L90.0049 180.637ZM79.936 125.502L78.9464 125.637L78.9464 125.637L79.936 125.502ZM73.8897 64.0839L74.8889 64.0433L74.8889 64.0434L73.8897 64.0839ZM66.5451 54.082L67.0021 53.1986L67.0022 53.1986L66.5451 54.082ZM64.0173 52.9336L65.0158 53.0107C64.1606 66.1162 63.1879 86.1672 63.0543 104.471C62.9875 113.624 63.1306 122.326 63.6012 129.499C64.075 136.72 64.8743 142.248 66.0563 145.15L65.1301 145.517L64.2039 145.884C62.8819 142.637 62.0762 136.797 61.6043 129.605C61.1292 122.364 60.9862 113.608 61.0532 104.432C61.1872 86.0781 62.1621 65.9866 63.0189 52.8565L64.0173 52.9336ZM65.1301 145.517L66.0563 145.15C67.3136 148.238 68.2778 154.005 69.0351 161.271C69.7973 168.584 70.3611 177.549 70.7711 187.123C71.5911 206.275 71.7974 227.915 71.7358 243.768L70.7353 243.752L69.7347 243.736C69.7962 227.901 69.59 206.294 68.7718 187.185C68.3626 177.629 67.8009 168.71 67.0447 161.454C66.2837 154.152 65.3368 148.666 64.2039 145.884L65.1301 145.517ZM70.7353 243.752L70.5843 242.762C71.1209 242.687 71.6555 242.61 72.1854 242.53L72.3481 243.518L72.5108 244.506C71.9697 244.588 71.4263 244.666 70.8863 244.742L70.7353 243.752ZM72.3481 243.518L72.1854 242.53C76.0243 241.944 79.7707 241.216 82.0949 240.714L82.3177 241.691L82.5404 242.668C80.1822 243.177 76.3955 243.913 72.5108 244.506L72.3481 243.518ZM82.3177 241.691L82.3418 240.693C84.318 240.764 87.3269 240.607 90.1042 239.904L90.3612 240.873L90.6183 241.842C87.6136 242.603 84.4077 242.767 82.2935 242.69L82.3177 241.691ZM90.3612 240.873L90.1042 239.904C92.9448 239.184 95.5449 237.893 96.5522 235.696L97.4628 236.121L98.3734 236.547C96.9669 239.614 93.5571 241.097 90.6183 241.842L90.3612 240.873ZM97.4628 236.121L96.5522 235.696C96.6309 235.525 96.688 235.262 96.7254 234.914L97.7202 235.033L98.7151 235.152C98.6716 235.557 98.5882 236.078 98.3735 236.546L97.4628 236.121ZM97.7202 235.033L96.7254 234.914C96.7628 234.566 96.7809 234.131 96.7795 233.62L97.7801 233.629L98.7806 233.639C98.7822 234.193 98.763 234.706 98.7151 235.152L97.7202 235.033ZM97.7801 233.629L96.7795 233.62C96.7766 232.594 96.6981 231.248 96.5545 229.63L97.5512 229.553L98.5479 229.477C98.6935 231.119 98.7775 232.53 98.7806 233.638L97.7801 233.629ZM97.5512 229.553L96.5545 229.63C96.2674 226.393 95.7182 222.064 94.986 217.005L95.9762 216.873L96.9665 216.742C97.7004 221.813 98.2558 226.186 98.5478 229.477L97.5512 229.553ZM95.9762 216.873L94.986 217.005C93.5215 206.886 91.3233 193.848 89.0196 180.799L90.0049 180.637L90.9902 180.475C93.2948 193.529 95.4974 206.592 96.9665 216.742L95.9762 216.873ZM90.0049 180.637L89.0196 180.799C84.4123 154.703 79.3818 128.562 78.9464 125.637L79.936 125.502L80.9257 125.367C81.3569 128.263 86.3669 154.288 90.9902 180.475L90.0049 180.637ZM79.936 125.502L78.9464 125.637C78.0758 119.789 73.1232 68.5282 72.8906 64.1244L73.8897 64.0839L74.8889 64.0434C75.1186 68.392 80.0656 119.589 80.9257 125.367L79.936 125.502ZM73.8897 64.0839L72.8906 64.1244C72.658 59.7238 69.6996 56.862 66.088 54.9655L66.5451 54.082L67.0022 53.1986C70.9098 55.2505 74.6024 58.6205 74.8889 64.0433L73.8897 64.0839ZM66.5451 54.082L66.088 54.9655C65.307 54.5554 64.49 54.1913 63.6585 53.8621L64.0173 52.9336L64.3761 52.0051C65.2595 52.3547 66.1443 52.7482 67.0021 53.1986L66.5451 54.082Z" fill="#3568FD"/>
<path d="M9.94617 83.7263C13.4511 67.5526 22.7247 59.8664 26.9234 58.045C27.106 62.9627 27.3615 73.3445 26.9234 75.5302C26.3758 78.2622 18.161 101.758 17.6133 105.583C17.0657 109.408 18.161 111.047 19.2563 113.232C20.3516 115.418 37.8765 125.8 41.7101 126.893C45.5436 127.986 49.3772 125.8 51.5678 127.439C53.7584 129.078 51.5678 133.45 47.7342 133.45C44.6674 133.45 42.8054 131.993 42.2577 131.264C39.702 130.9 31.8523 129.297 20.8992 125.8C7.2079 121.429 5.56494 114.325 5.56494 112.686C5.56494 111.047 5.56494 103.943 9.94617 83.7263Z" fill="white" stroke="#3568FD" stroke-width="2" stroke-linecap="round" stroke-linejoin="round"/>
<path d="M85.7591 81.3413C82.2541 65.3861 72.9805 57.8038 68.7818 56.0071C68.5993 60.8583 68.3437 71.0998 68.7818 73.2559C69.3295 75.951 77.5443 99.1292 78.0919 102.902C78.6396 106.676 77.5443 108.293 76.449 110.449C75.3537 112.605 57.8288 122.846 53.9952 123.924C50.1616 125.002 46.3281 122.846 44.1374 124.463C41.9468 126.08 44.1374 130.393 47.971 130.393C51.0379 130.393 52.8999 128.955 53.4475 128.237C56.0033 127.877 63.853 126.296 74.806 122.846C88.4974 118.534 90.1403 111.527 90.1403 109.91C90.1403 108.293 90.1403 101.285 85.7591 81.3413Z" fill="white" stroke="#3568FD" stroke-width="2" stroke-linecap="round" stroke-linejoin="round"/>
<rect x="35.3915" y="7.01185" width="28" height="43" fill="white"/>
<path d="M49.381 27.4756C50.0603 28.4946 51.0114 30.8383 49.381 32.061" stroke="#3568FD" stroke-width="2" stroke-linecap="round" stroke-linejoin="round"/>
<path d="M45.3051 35.6275C46.4939 37.1559 49.4829 39.2958 51.9284 35.6275" stroke="#3568FD" stroke-width="2" stroke-linecap="round" stroke-linejoin="round"/>
<path d="M56.7917 17.2858C61.9469 17.2858 62.686 19.2622 62.7927 21.9176H64.6657V23.7702H62.7936C62.5572 26.8792 59.9613 29.3288 56.7917 29.3288C53.6221 29.3287 51.0262 26.8792 50.7897 23.7702H47.9724C47.7359 26.8792 45.14 29.3288 41.9704 29.3288C38.8008 29.3288 36.2049 26.8792 35.9684 23.7702H34.0964V21.9176H35.9694C36.0761 19.2622 36.8152 17.2858 41.9704 17.2858C47.1256 17.2858 47.8647 19.2622 47.9714 21.9176H50.7907C50.8974 19.2622 51.6366 17.2858 56.7917 17.2858Z" fill="#3568FD"/>
<path d="M47.2955 1.03235C52.8258 0.769057 58.2207 2.08259 62.2975 5.95521C66.3728 9.82677 68.9727 16.1064 69.2321 25.4406C69.4908 34.7561 67.6804 39.9252 65.775 43.0558C64.8293 44.6094 63.8761 45.63 63.2477 46.337C62.9185 46.7073 62.7323 46.9341 62.6315 47.1066C62.6108 47.1419 62.5996 47.1681 62.5924 47.1847C62.8459 48.1941 63.2029 49.4738 63.7135 50.4952C63.9729 51.0141 64.2442 51.4086 64.5143 51.6622C64.7729 51.9051 64.9858 51.9806 65.1754 51.9806C65.4838 51.9806 65.8225 52.0654 66.1119 52.298C66.3991 52.5289 66.5502 52.8357 66.6178 53.1202C66.743 53.6483 66.6127 54.2139 66.4225 54.6896C66.0234 55.6872 65.1312 56.8698 63.7623 57.965C60.9911 60.1819 56.1469 62.145 48.8004 61.6202C37.186 60.7906 31.5667 56.0689 30.1588 53.4542C29.9993 53.1575 30.0002 52.8002 30.1608 52.504C30.3215 52.2079 30.6208 52.0115 30.9567 51.9835C31.8489 51.9091 33.1608 51.5681 34.1705 50.8341C35.128 50.138 35.8119 49.1048 35.649 47.4757C35.5383 46.3693 35.1797 45.4072 34.653 44.3156C34.1557 43.2852 33.4019 41.9462 32.7379 40.4601C31.3398 37.3309 30.0397 32.9873 30.0397 25.4679C30.0397 17.9767 31.4573 12.0127 34.358 7.83021C37.2921 3.60003 41.6692 1.30034 47.2955 1.03235ZM48.5602 7.94837C48.1786 7.56675 47.5623 7.55685 47.1686 7.92591C45.8162 9.1938 43.6862 11.1472 41.694 12.882C40.6975 13.7497 39.7418 14.5566 38.9391 15.1945C38.1096 15.8536 37.5157 16.2718 37.2155 16.422C36.6053 16.7272 36.2683 17.3707 36.0651 17.8868C35.8386 18.462 35.6668 19.178 35.5377 19.965C35.2783 21.5465 35.1664 23.5679 35.1989 25.6749C35.2313 27.7861 35.4097 30.0187 35.7457 32.0265C36.0779 34.0112 36.5778 35.866 37.2985 37.1632C40.0869 42.182 45.6079 43.7911 49.3815 43.7911C53.3123 43.791 57.7001 41.5583 60.4196 37.2072C61.0267 36.2356 61.4687 34.791 61.8073 33.2013C62.152 31.5826 62.4111 29.7027 62.6041 27.7853C62.9903 23.9489 63.1188 19.889 63.1188 17.3165C63.1187 16.9442 62.9116 16.6022 62.5817 16.4298C60.6395 15.4165 57.5965 13.7687 54.7906 12.1232C53.3876 11.3003 52.0513 10.4822 50.9449 9.74818C49.8203 9.00193 48.9926 8.38066 48.5602 7.94837Z" fill="white"/>
<path d="M47.2955 1.03235L47.248 0.0334862L47.248 0.0334871L47.2955 1.03235ZM62.2975 5.95521L62.9862 5.23021L62.9862 5.23018L62.2975 5.95521ZM69.2321 25.4406L70.2317 25.4128V25.4128L69.2321 25.4406ZM65.775 43.0558L66.6292 43.5757L66.6292 43.5757L65.775 43.0558ZM63.2477 46.337L62.5003 45.6727L62.5003 45.6727L63.2477 46.337ZM62.6315 47.1066L61.7681 46.602L61.7677 46.6026L62.6315 47.1066ZM62.5924 47.1847L61.6752 46.7863C61.5873 46.9886 61.5688 47.2143 61.6225 47.4283L62.5924 47.1847ZM63.7135 50.4952L62.819 50.9424L62.8191 50.9425L63.7135 50.4952ZM64.5143 51.6622L63.8297 52.3912L63.8298 52.3913L64.5143 51.6622ZM65.1754 51.9806L65.1753 52.9806H65.1753L65.1754 51.9806ZM66.1119 52.298L66.7386 51.5187L66.7384 51.5185L66.1119 52.298ZM66.6178 53.1202L67.5908 52.8895L67.5907 52.8892L66.6178 53.1202ZM66.4225 54.6896L67.3509 55.061L67.351 55.0609L66.4225 54.6896ZM63.7623 57.965L64.387 58.7458L64.3871 58.7458L63.7623 57.965ZM48.8004 61.6202L48.7292 62.6177L48.7292 62.6177L48.8004 61.6202ZM30.1588 53.4542L29.278 53.9276L29.2783 53.9283L30.1588 53.4542ZM30.1608 52.504L29.2819 52.027L29.2817 52.0274L30.1608 52.504ZM30.9567 51.9835L31.0397 52.9801L31.0398 52.9801L30.9567 51.9835ZM34.1705 50.8341L34.7585 51.643L34.7586 51.6429L34.1705 50.8341ZM35.649 47.4757L36.6441 47.3762L36.6441 47.3762L35.649 47.4757ZM34.653 44.3156L35.5536 43.881L35.5536 43.881L34.653 44.3156ZM32.7379 40.4601L31.8249 40.868L31.8249 40.868L32.7379 40.4601ZM30.0397 25.4679L29.0397 25.4679V25.4679H30.0397ZM34.358 7.83021L33.5363 7.26027L33.5363 7.26031L34.358 7.83021ZM48.5602 7.94837L47.8531 8.65547L47.8532 8.65555L48.5602 7.94837ZM47.1686 7.92591L46.4847 7.19629L46.4846 7.19637L47.1686 7.92591ZM41.694 12.882L42.3507 13.6361L42.3507 13.6361L41.694 12.882ZM38.9391 15.1945L39.5612 15.9774L39.5613 15.9773L38.9391 15.1945ZM37.2155 16.422L36.7681 15.5276L36.7681 15.5276L37.2155 16.422ZM36.0651 17.8868L35.1346 17.5204L35.1346 17.5204L36.0651 17.8868ZM35.5377 19.965L34.5509 19.8031L34.5509 19.8031L35.5377 19.965ZM35.1989 25.6749L34.199 25.6903V25.6903L35.1989 25.6749ZM35.7457 32.0265L34.7594 32.1915L34.7594 32.1916L35.7457 32.0265ZM37.2985 37.1632L36.4243 37.6489L36.4243 37.6489L37.2985 37.1632ZM49.3815 43.7911V44.7911H49.3815L49.3815 43.7911ZM60.4196 37.2072L61.2676 37.7372L61.2676 37.7371L60.4196 37.2072ZM61.8073 33.2013L62.7853 33.4096L62.7853 33.4096L61.8073 33.2013ZM62.6041 27.7853L63.5991 27.8855V27.8854L62.6041 27.7853ZM63.1188 17.3165L64.1188 17.3165V17.3163L63.1188 17.3165ZM62.5817 16.4298L63.0447 15.5435L63.0442 15.5432L62.5817 16.4298ZM54.7906 12.1232L54.2848 12.9858L54.2848 12.9858L54.7906 12.1232ZM50.9449 9.74817L50.392 10.5814L50.3921 10.5814L50.9449 9.74817ZM47.2955 1.03235L47.3431 2.03122C52.6927 1.77653 57.7878 3.05062 61.6088 6.68023L62.2975 5.95521L62.9862 5.23018C58.6536 1.11456 52.9588 -0.238411 47.248 0.0334862L47.2955 1.03235ZM62.2975 5.95521L61.6087 6.68021C65.4298 10.3102 67.9776 16.2975 68.2324 25.4683L69.2321 25.4406L70.2317 25.4128C69.9678 15.9152 67.3159 9.34336 62.9862 5.23021L62.2975 5.95521ZM69.2321 25.4406L68.2324 25.4683C68.4871 34.6385 66.7039 39.6063 64.9208 42.5359L65.775 43.0558L66.6292 43.5757C68.657 40.2442 70.4944 34.8738 70.2317 25.4128L69.2321 25.4406ZM65.775 43.0558L64.9208 42.5358C64.0293 44.0005 63.1369 44.9565 62.5003 45.6727L63.2477 46.337L63.9951 47.0014C64.6154 46.3036 65.6294 45.2184 66.6292 43.5757L65.775 43.0558ZM63.2477 46.337L62.5003 45.6727C62.1834 46.0292 61.9276 46.3291 61.7681 46.602L62.6315 47.1066L63.4948 47.6112C63.537 47.539 63.6537 47.3855 63.9951 47.0014L63.2477 46.337ZM62.6315 47.1066L61.7677 46.6026C61.7161 46.6911 61.6859 46.7617 61.6752 46.7863L62.5924 47.1847L63.5096 47.5831C63.5138 47.5735 63.5111 47.5799 63.5077 47.587C63.5038 47.595 63.4995 47.6031 63.4952 47.6105L62.6315 47.1066ZM62.5924 47.1847L61.6225 47.4283C61.8768 48.4406 62.2551 49.8144 62.819 50.9424L63.7135 50.4952L64.608 50.0481C64.1506 49.1332 63.8151 47.9476 63.5623 46.9411L62.5924 47.1847ZM63.7135 50.4952L62.8191 50.9425C63.1054 51.5151 63.4397 52.0248 63.8297 52.3912L64.5143 51.6622L65.1989 50.9333C65.0488 50.7923 64.8404 50.513 64.6079 50.048L63.7135 50.4952ZM64.5143 51.6622L63.8298 52.3913C64.2225 52.7599 64.6687 52.9805 65.1753 52.9806L65.1754 51.9806L65.1756 50.9806C65.1955 50.9806 65.2171 50.9827 65.2384 50.9873C65.2596 50.9918 65.2743 50.9975 65.2816 51.0008C65.295 51.0068 65.2673 50.9976 65.1987 50.9332L64.5143 51.6622ZM65.1754 51.9806L65.1753 52.9806C65.3049 52.9806 65.4084 53.0155 65.4855 53.0774L66.1119 52.298L66.7384 51.5185C66.2366 51.1152 65.6627 50.9807 65.1755 50.9806L65.1754 51.9806ZM66.1119 52.298L65.4853 53.0773C65.5615 53.1385 65.6161 53.2303 65.6449 53.3513L66.6178 53.1202L67.5907 52.8892C67.4843 52.441 67.2367 51.9192 66.7386 51.5187L66.1119 52.298ZM66.6178 53.1202L65.6448 53.351C65.7005 53.5861 65.6528 53.921 65.494 54.3183L66.4225 54.6896L67.351 55.0609C67.5725 54.5069 67.7855 53.7106 67.5908 52.8895L66.6178 53.1202ZM66.4225 54.6896L65.494 54.3181C65.1756 55.1141 64.4112 56.1652 63.1376 57.1841L63.7623 57.965L64.3871 58.7458C65.8512 57.5744 66.8711 56.2604 67.3509 55.061L66.4225 54.6896ZM63.7623 57.965L63.1376 57.1841C60.5903 59.2219 56.0045 61.1322 48.8717 60.6228L48.8004 61.6202L48.7292 62.6177C56.2893 63.1577 61.392 61.1418 64.387 58.7458L63.7623 57.965ZM48.8004 61.6202L48.8717 60.6228C37.4586 59.8075 32.2279 55.1875 31.0393 52.9801L30.1588 53.4542L29.2783 53.9283C30.9056 56.9503 36.9133 61.7737 48.7292 62.6177L48.8004 61.6202ZM30.1588 53.4542L31.0397 52.9808L31.0399 52.9807L30.1608 52.504L29.2817 52.0274C28.9607 52.6193 28.9588 53.3337 29.278 53.9276L30.1588 53.4542ZM30.1608 52.504L31.0396 52.9811C31.0399 52.9806 31.0402 52.9802 31.0407 52.9799C31.0412 52.9796 31.0407 52.98 31.0397 52.9801L30.9567 51.9835L30.8736 50.987C30.2 51.0431 29.6026 51.4363 29.2819 52.027L30.1608 52.504ZM30.9567 51.9835L31.0398 52.9801C32.0587 52.8951 33.5614 52.5131 34.7585 51.643L34.1705 50.8341L33.5826 50.0252C32.7602 50.623 31.6391 50.9231 30.8736 50.987L30.9567 51.9835ZM34.1705 50.8341L34.7586 51.6429C35.3358 51.2233 35.869 50.6736 36.2271 49.9465C36.5881 49.2132 36.7422 48.3574 36.6441 47.3762L35.649 47.4757L34.654 47.5752C34.7188 48.2231 34.6123 48.6984 34.4328 49.063C34.2502 49.4338 33.9628 49.7488 33.5825 50.0253L34.1705 50.8341ZM35.649 47.4757L36.6441 47.3762C36.5167 46.1027 36.1029 45.0194 35.5536 43.881L34.653 44.3156L33.7523 44.7501C34.2565 45.7951 34.56 46.636 34.654 47.5753L35.649 47.4757ZM34.653 44.3156L35.5536 43.881C35.0065 42.7473 34.3185 41.5463 33.6509 40.0522L32.7379 40.4601L31.8249 40.868C32.4853 42.3461 33.305 43.8231 33.7523 44.7502L34.653 44.3156ZM32.7379 40.4601L33.6509 40.0522C32.3136 37.0589 31.0397 32.8553 31.0397 25.4679H30.0397H29.0397C29.0397 33.1193 30.3661 37.6029 31.8249 40.868L32.7379 40.4601ZM30.0397 25.4679L31.0397 25.4679C31.0397 18.0806 32.4413 12.3486 35.1797 8.4001L34.358 7.83021L33.5363 7.26031C30.4733 11.6768 29.0397 17.8728 29.0397 25.4679L30.0397 25.4679ZM34.358 7.83021L35.1797 8.40014C37.9182 4.45207 41.9938 2.28601 47.3431 2.03122L47.2955 1.03235L47.248 0.0334871C41.3446 0.314663 36.6661 2.74799 33.5363 7.26027L34.358 7.83021ZM48.5602 7.94837L49.2673 7.24127C48.504 6.47793 47.2722 6.45826 46.4847 7.19629L47.1686 7.92591L47.8524 8.65553L47.8531 8.65547L48.5602 7.94837ZM47.1686 7.92591L46.4846 7.19637C45.1383 8.45859 43.0177 10.4034 41.0373 12.1278L41.694 12.882L42.3507 13.6361C44.3546 11.8911 46.494 9.92901 47.8525 8.65545L47.1686 7.92591ZM41.694 12.882L41.0373 12.1278C40.0464 12.9906 39.1032 13.7867 38.3169 14.4116L38.9391 15.1945L39.5613 15.9773C40.3804 15.3264 41.3486 14.5087 42.3507 13.6361L41.694 12.882ZM38.9391 15.1945L38.3169 14.4116C37.4769 15.0791 36.961 15.4312 36.7681 15.5276L37.2155 16.422L37.6628 17.3164C38.0705 17.1124 38.7423 16.6281 39.5612 15.9774L38.9391 15.1945ZM37.2155 16.422L36.7681 15.5276C35.8027 16.0105 35.3512 16.9704 35.1346 17.5204L36.0651 17.8868L36.9955 18.2533C37.0821 18.0333 37.1829 17.8246 37.3048 17.6518C37.4256 17.4805 37.5458 17.3749 37.6628 17.3164L37.2155 16.422ZM36.0651 17.8868L35.1346 17.5204C34.8718 18.1879 34.6858 18.981 34.5509 19.8031L35.5377 19.965L36.5245 20.1268C36.6478 19.3751 36.8054 18.7361 36.9955 18.2533L36.0651 17.8868ZM35.5377 19.965L34.5509 19.8031C34.2789 21.4617 34.166 23.5463 34.199 25.6903L35.1989 25.6749L36.1987 25.6596C36.1669 23.5896 36.2778 21.6312 36.5245 20.1268L35.5377 19.965ZM35.1989 25.6749L34.199 25.6903C34.2321 27.8429 34.4138 30.1263 34.7594 32.1915L35.7457 32.0265L36.732 31.8614C36.4056 29.9111 36.2306 27.7294 36.1987 25.6595L35.1989 25.6749ZM35.7457 32.0265L34.7594 32.1916C35.0974 34.2108 35.6197 36.2007 36.4243 37.6489L37.2985 37.1632L38.1726 36.6776C37.5358 35.5313 37.0584 33.8116 36.732 31.8614L35.7457 32.0265ZM37.2985 37.1632L36.4243 37.6489C39.4542 43.1022 45.4019 44.7911 49.3815 44.7911V43.7911V42.7911C45.8139 42.7911 40.7197 41.2619 38.1726 36.6775L37.2985 37.1632ZM49.3815 43.7911L49.3815 44.7911C53.6768 44.791 58.3761 42.3635 61.2676 37.7372L60.4196 37.2072L59.5716 36.6772C57.0241 40.7531 52.9477 42.791 49.3814 42.7911L49.3815 43.7911ZM60.4196 37.2072L61.2676 37.7371C61.9723 36.6094 62.4424 35.0198 62.7853 33.4096L61.8073 33.2013L60.8292 32.993C60.495 34.5622 60.081 35.8619 59.5715 36.6772L60.4196 37.2072ZM61.8073 33.2013L62.7853 33.4096C63.1405 31.7419 63.4041 29.8225 63.5991 27.8855L62.6041 27.7853L61.6092 27.6851C61.4181 29.5828 61.1635 31.4233 60.8292 32.993L61.8073 33.2013ZM62.6041 27.7853L63.5991 27.8854C63.9894 24.0084 64.1188 19.9141 64.1188 17.3165L63.1188 17.3165L62.1188 17.3165C62.1188 19.864 61.9913 23.8895 61.6092 27.6851L62.6041 27.7853ZM63.1188 17.3165L64.1188 17.3163C64.1186 16.5721 63.705 15.8884 63.0447 15.5435L62.5817 16.4298L62.1186 17.3162L62.1188 17.3167L63.1188 17.3165ZM62.5817 16.4298L63.0442 15.5432C61.1128 14.5355 58.0848 12.8958 55.2965 11.2606L54.7906 12.1232L54.2848 12.9858C57.1082 14.6416 60.1662 16.2975 62.1191 17.3164L62.5817 16.4298ZM54.7906 12.1232L55.2965 11.2606C53.9019 10.4427 52.5829 9.63488 51.4978 8.91492L50.9449 9.74817L50.3921 10.5814C51.5196 11.3296 52.8732 12.1579 54.2848 12.9858L54.7906 12.1232ZM50.9449 9.74817L51.4978 8.91493C50.3755 8.17019 49.6224 7.59627 49.2672 7.24119L48.5602 7.94837L47.8532 8.65555C48.3628 9.16505 49.2651 9.83367 50.392 10.5814L50.9449 9.74817Z" fill="#3568FD"/>
</svg>
