<svg width="163" height="168" viewBox="0 0 163 168" fill="none" xmlns="http://www.w3.org/2000/svg">
<path d="M147.981 22.1906C136.418 11.1814 107.509 31.6445 95.92 48.4763C82.4129 64.9958 78.7076 56.3698 64.8693 35.3968C51.0311 14.4237 25.4045 16.9356 18.3437 35.8421C11.2828 54.7486 19.7977 100.259 48.9592 133.088C78.1208 165.916 87.3835 166.087 118.758 136.433C150.132 106.778 169.566 42.7413 147.981 22.1906Z" fill="#FF7724"/>
<path d="M47.506 79.3359C47.506 79.2891 47.4826 79.1953 47.4357 79.0547L47.3654 79.0195C46.1701 78.7148 44.9279 78.5508 43.6388 78.5273C42.3498 78.5039 41.1076 78.4336 39.9123 78.3164C39.3732 78.293 38.9865 78.1289 38.7521 77.8242C38.5412 77.5195 38.4357 77.2031 38.4357 76.875C38.4357 76.5469 38.5646 76.2422 38.8224 75.9609C39.0802 75.6562 39.467 75.5039 39.9826 75.5039C40.4982 75.5508 41.1076 75.5742 41.8107 75.5742C42.5373 75.5508 43.2873 75.5508 44.0607 75.5742C44.8341 75.5977 45.5959 75.668 46.3459 75.7852C47.1193 75.8789 47.799 76.0781 48.3849 76.3828C48.9943 76.6641 49.4865 77.0742 49.8615 77.6133C50.2365 78.1523 50.424 78.8555 50.424 79.7227C50.424 80.707 50.342 81.6094 50.1779 82.4297C50.0138 83.2266 49.8732 84.0469 49.756 84.8906L49.6505 85.4531C49.9318 85.4297 50.2482 85.418 50.5998 85.418C50.9513 85.418 51.3498 85.418 51.7951 85.418C52.6388 85.7227 53.0607 86.1914 53.0607 86.8242C52.9904 87.293 52.8029 87.6328 52.4982 87.8438C52.217 88.0547 51.8888 88.1953 51.5138 88.2656C51.1388 88.3359 50.7404 88.3594 50.3185 88.3359C49.9201 88.3125 49.5685 88.3125 49.2638 88.3359C49.006 89.5781 48.7951 90.8203 48.631 92.0625C48.4904 93.3047 48.2209 94.5234 47.8224 95.7188C47.6349 95.9531 47.424 96.1172 47.1896 96.2109C46.9787 96.3047 46.7677 96.3516 46.5568 96.3516C46.1584 96.3516 45.842 96.2344 45.6076 96C45.3966 95.7891 45.2912 95.4375 45.2912 94.9453C45.2912 94.7344 45.338 94.3945 45.4318 93.9258C45.549 93.4336 45.6662 92.8828 45.7834 92.2734C45.924 91.6641 46.0529 91.0312 46.1701 90.375C46.2873 89.7188 46.3576 89.0859 46.381 88.4766L42.4435 88.6875C41.9279 88.6406 41.5646 88.4648 41.3537 88.1602C41.1427 87.832 41.0373 87.5039 41.0373 87.1758C41.0373 86.8242 41.1545 86.5078 41.3888 86.2266C41.6466 85.9453 42.0099 85.8047 42.4787 85.8047C43.3693 85.8047 44.1779 85.7812 44.9045 85.7344C45.631 85.6875 46.2638 85.6406 46.8029 85.5938L47.1896 83.168C47.4005 81.8789 47.506 80.6016 47.506 79.3359ZM63.3854 89.3203C63.2682 89.2969 63.1627 89.2852 63.069 89.2852C63.0221 89.2852 62.9049 89.4609 62.7174 89.8125C62.5299 90.1406 62.3073 90.5273 62.0495 90.9727C61.8151 91.3945 61.5807 91.8281 61.3463 92.2734C61.112 92.6953 60.9362 93 60.819 93.1875C60.444 93.6328 60.0221 93.8555 59.5534 93.8555C59.2018 93.8555 58.8971 93.7383 58.6393 93.5039C58.3815 93.2461 58.2526 92.8828 58.2526 92.4141C58.2526 92.2266 58.2643 92.0742 58.2877 91.957C59.0612 90.5977 59.7995 89.2617 60.5026 87.9492C61.2057 86.6367 61.9323 85.3359 62.6823 84.0469C63.4557 82.7578 64.2643 81.5039 65.108 80.2852C65.9518 79.043 66.901 77.8359 67.9557 76.6641C68.1198 76.4766 68.2955 76.3594 68.483 76.3125C68.6705 76.2422 68.8463 76.1953 69.0104 76.1719C69.362 76.1719 69.6549 76.3008 69.8893 76.5586C70.1471 76.8164 70.2995 77.1328 70.3463 77.5078C70.276 77.7656 70.194 77.9414 70.1002 78.0352L70.3815 77.8945C70.6862 77.8945 71.0026 77.9766 71.3307 78.1406C71.6823 78.3047 71.9284 78.6211 72.069 79.0898C72.2565 80.4023 72.4791 81.6797 72.737 82.9219C72.9948 84.1406 73.2409 85.3711 73.4752 86.6133C73.733 87.832 73.9557 89.0625 74.1432 90.3047C74.3541 91.5469 74.483 92.8359 74.5299 94.1719C74.5299 94.6406 74.3893 95.0039 74.108 95.2617C73.8268 95.4961 73.5221 95.6133 73.194 95.6133C72.8424 95.6133 72.5026 95.5078 72.1745 95.2969C71.8698 95.0859 71.694 94.7227 71.6471 94.207C71.6002 92.5664 71.4596 91.0195 71.2252 89.5664C71.1784 89.6133 71.0495 89.6484 70.8385 89.6719C69.5729 89.6719 68.3073 89.6133 67.0416 89.4961C65.7995 89.3789 64.5807 89.3203 63.3854 89.3203ZM64.6159 86.5078C65.4596 86.5547 66.444 86.6133 67.569 86.6836C68.694 86.7539 69.7252 86.7891 70.6627 86.7891H70.6979L70.6627 86.6133C70.5924 86.3789 70.5104 86.0391 70.4166 85.5938C70.3229 85.1484 70.2174 84.668 70.1002 84.1523C70.0065 83.6367 69.901 83.1094 69.7838 82.5703C69.6901 82.0078 69.5963 81.5039 69.5026 81.0586C69.4088 80.6133 69.3268 80.25 69.2565 79.9688C69.2096 79.6875 69.1862 79.5469 69.1862 79.5469C68.9752 79.7344 68.6823 80.0742 68.3073 80.5664C67.9791 80.9883 67.5573 81.6094 67.0416 82.4297C66.526 83.2266 65.8815 84.3164 65.108 85.6992L64.6159 86.5078ZM87.6024 96.1406C87.5087 96.1406 87.4266 96.1523 87.3563 96.1758C86.747 96.1758 86.1845 96.0117 85.6688 95.6836C85.1766 95.3555 84.8134 94.957 84.579 94.4883V94.4531C84.5555 94.4531 84.5087 94.5117 84.4384 94.6289C83.8993 95.2852 83.3602 95.7539 82.8212 96.0352C82.2821 96.3164 81.661 96.457 80.9579 96.457C80.0438 96.457 79.1649 96.3281 78.3212 96.0703C77.4774 95.8125 76.7391 95.4141 76.1063 94.875C75.4735 94.3359 74.9579 93.668 74.5595 92.8711C74.1845 92.0508 73.997 91.0898 73.997 89.9883C73.997 88.9102 74.0907 87.7852 74.2782 86.6133C74.4891 85.4414 74.6415 84.3633 74.7352 83.3789C74.8524 82.9336 75.0516 82.6055 75.3329 82.3945C75.6376 82.1836 75.9305 82.0781 76.2118 82.0781C76.6102 82.0781 76.9384 82.2188 77.1962 82.5C77.4774 82.7578 77.618 83.1562 77.618 83.6953C77.5712 84.0234 77.5009 84.4102 77.4071 84.8555C77.3368 85.2773 77.2665 85.7461 77.1962 86.2617C77.1259 86.7539 77.0555 87.2695 76.9852 87.8086C76.9384 88.3477 76.9149 88.875 76.9149 89.3906C76.9149 89.9062 76.997 90.4219 77.161 90.9375C77.3251 91.4531 77.5477 91.9219 77.829 92.3438C78.1337 92.7422 78.4735 93.0703 78.8485 93.3281C79.2235 93.5859 79.622 93.7148 80.0438 93.7148C80.3251 93.7148 80.618 93.6914 80.9227 93.6445C81.2274 93.5977 81.5204 93.4453 81.8016 93.1875C82.1063 92.9062 82.3876 92.4961 82.6454 91.957C82.9032 91.418 83.1024 90.6562 83.243 89.6719C83.2196 89.2969 83.1962 88.957 83.1727 88.6523C83.1727 88.3477 83.1727 88.0664 83.1727 87.8086L83.1376 82.9219C83.2313 82.5234 83.3954 82.2188 83.6298 82.0078C83.8876 81.7969 84.1923 81.668 84.5438 81.6211C85.247 81.6211 85.7391 82.043 86.0204 82.8867C86.0204 83.1445 86.0087 83.4141 85.9852 83.6953C85.9852 83.9531 85.9852 84.2109 85.9852 84.4688C85.9852 85.1719 86.0087 85.8633 86.0555 86.543C86.1024 87.1992 86.1259 87.8672 86.1259 88.5469C86.1259 88.7812 86.1259 89.0156 86.1259 89.25C86.1259 89.4609 86.1141 89.6719 86.0907 89.8828C86.1845 90.4453 86.3134 90.9844 86.4774 91.5C86.6649 92.0156 86.8876 92.4609 87.1454 92.8359C87.2157 92.8125 87.3329 92.8008 87.497 92.8008C87.872 92.8008 88.1884 92.9414 88.4462 93.2227C88.7274 93.5039 88.868 93.9023 88.868 94.418C88.7977 94.7695 88.7157 95.0391 88.622 95.2266C88.5516 95.3906 88.3993 95.6016 88.1649 95.8594L87.6024 96.1406ZM94.4171 85.5586C94.0187 85.4648 93.6554 85.3477 93.3273 85.207C93.0226 85.0664 92.6945 84.9961 92.3429 84.9961C92.0148 84.9961 91.7218 85.1016 91.464 85.3125C91.2296 85.5 91.0187 85.7578 90.8312 86.0859C90.6671 86.4141 90.5382 86.7773 90.4445 87.1758C90.3507 87.5742 90.3038 87.9844 90.3038 88.4062C90.3038 88.6641 90.339 88.957 90.4093 89.2852C90.4796 89.5898 90.5734 89.8711 90.6905 90.1289C90.8312 90.3867 90.9952 90.6094 91.1827 90.7969C91.3702 90.9609 91.5929 91.043 91.8507 91.043C92.296 91.043 92.6827 90.9023 93.0109 90.6211C93.3624 90.3398 93.6437 89.9883 93.8546 89.5664C94.0655 89.1445 94.2179 88.6875 94.3116 88.1953C94.4288 87.7031 94.4874 87.2461 94.4874 86.8242C94.4874 86.6133 94.4757 86.4141 94.4523 86.2266C94.4288 86.0156 94.4171 85.793 94.4171 85.5586ZM90.3741 104.051C89.8351 104.051 89.4601 103.875 89.2491 103.523C89.0382 103.195 88.9327 102.867 88.9327 102.539C88.9327 102.211 89.0499 101.906 89.2843 101.625C89.5421 101.344 89.882 101.203 90.3038 101.203C91.2882 101.203 92.1085 101.051 92.7648 100.746C93.421 100.441 93.9484 100.031 94.3468 99.5156C94.7687 99 95.0616 98.3906 95.2257 97.6875C95.3898 97.0078 95.4718 96.2812 95.4718 95.5078C95.4718 94.9922 95.4484 94.4766 95.4015 93.9609C95.378 93.4453 95.3429 92.918 95.296 92.3789C94.3116 93.3633 93.1749 93.8555 91.8859 93.8555C91.1827 93.8555 90.5616 93.7148 90.0226 93.4336C89.4835 93.1289 89.0265 92.7305 88.6515 92.2383C88.2765 91.7227 87.9835 91.1367 87.7726 90.4805C87.5851 89.8242 87.4913 89.1445 87.4913 88.4414C87.4913 87.7617 87.5851 87.0469 87.7726 86.2969C87.9835 85.5469 88.2882 84.8555 88.6866 84.2227C89.1085 83.5898 89.6124 83.0742 90.1984 82.6758C90.8077 82.2539 91.5109 82.043 92.3077 82.043C92.7062 82.043 93.128 82.1016 93.5734 82.2188C94.0187 82.3125 94.4288 82.4414 94.8038 82.6055C95.2023 82.7461 95.5421 82.9102 95.8234 83.0977C96.1046 83.2617 96.2804 83.4023 96.3507 83.5195C96.4913 83.7773 96.5616 84.0234 96.5616 84.2578L96.7374 84.3633C96.9718 84.5977 97.1593 84.9141 97.2999 85.3125C97.3702 86.1328 97.464 86.9297 97.5812 87.7031C97.7218 88.4531 97.8507 89.2031 97.9679 89.9531C98.0851 90.6797 98.1905 91.4297 98.2843 92.2031C98.378 92.9531 98.4249 93.7383 98.4249 94.5586C98.4249 95.4961 98.3077 96.5156 98.0734 97.6172C97.839 98.7422 97.4523 99.7734 96.9132 100.711C96.3976 101.672 95.7062 102.469 94.839 103.102C93.9952 103.734 92.964 104.051 91.7452 104.051H90.3741ZM111.076 96.1406C110.982 96.1406 110.9 96.1523 110.829 96.1758C110.22 96.1758 109.658 96.0117 109.142 95.6836C108.65 95.3555 108.286 94.957 108.052 94.4883V94.4531C108.029 94.4531 107.982 94.5117 107.911 94.6289C107.372 95.2852 106.833 95.7539 106.294 96.0352C105.755 96.3164 105.134 96.457 104.431 96.457C103.517 96.457 102.638 96.3281 101.794 96.0703C100.951 95.8125 100.212 95.4141 99.5795 94.875C98.9466 94.3359 98.431 93.668 98.0326 92.8711C97.6576 92.0508 97.4701 91.0898 97.4701 89.9883C97.4701 88.9102 97.5638 87.7852 97.7513 86.6133C97.9623 85.4414 98.1146 84.3633 98.2084 83.3789C98.3255 82.9336 98.5248 82.6055 98.806 82.3945C99.1107 82.1836 99.4037 82.0781 99.6849 82.0781C100.083 82.0781 100.411 82.2188 100.669 82.5C100.951 82.7578 101.091 83.1562 101.091 83.6953C101.044 84.0234 100.974 84.4102 100.88 84.8555C100.81 85.2773 100.74 85.7461 100.669 86.2617C100.599 86.7539 100.529 87.2695 100.458 87.8086C100.411 88.3477 100.388 88.875 100.388 89.3906C100.388 89.9062 100.47 90.4219 100.634 90.9375C100.798 91.4531 101.021 91.9219 101.302 92.3438C101.607 92.7422 101.947 93.0703 102.322 93.3281C102.697 93.5859 103.095 93.7148 103.517 93.7148C103.798 93.7148 104.091 93.6914 104.396 93.6445C104.701 93.5977 104.994 93.4453 105.275 93.1875C105.579 92.9062 105.861 92.4961 106.119 91.957C106.376 91.418 106.576 90.6562 106.716 89.6719C106.693 89.2969 106.669 88.957 106.646 88.6523C106.646 88.3477 106.646 88.0664 106.646 87.8086L106.611 82.9219C106.704 82.5234 106.869 82.2188 107.103 82.0078C107.361 81.7969 107.665 81.668 108.017 81.6211C108.72 81.6211 109.212 82.043 109.494 82.8867C109.494 83.1445 109.482 83.4141 109.458 83.6953C109.458 83.9531 109.458 84.2109 109.458 84.4688C109.458 85.1719 109.482 85.8633 109.529 86.543C109.576 87.1992 109.599 87.8672 109.599 88.5469C109.599 88.7812 109.599 89.0156 109.599 89.25C109.599 89.4609 109.587 89.6719 109.564 89.8828C109.658 90.4453 109.786 90.9844 109.951 91.5C110.138 92.0156 110.361 92.4609 110.619 92.8359C110.689 92.8125 110.806 92.8008 110.97 92.8008C111.345 92.8008 111.661 92.9414 111.919 93.2227C112.201 93.5039 112.341 93.9023 112.341 94.418C112.271 94.7695 112.189 95.0391 112.095 95.2266C112.025 95.3906 111.872 95.6016 111.638 95.8594L111.076 96.1406ZM119.859 81.3398C120.234 81.457 120.515 81.6562 120.703 81.9375C120.89 82.2188 120.984 82.5 120.984 82.7812C120.984 83.1797 120.843 83.5195 120.562 83.8008C120.281 84.0586 119.941 84.1875 119.543 84.1875C119.425 84.1875 119.332 84.1758 119.261 84.1523C118.769 84.0117 118.312 83.9062 117.89 83.8359C117.468 83.7422 117.058 83.6953 116.66 83.6953C116.308 83.6953 115.957 83.7305 115.605 83.8008C115.254 83.8711 114.879 83.9648 114.48 84.082L114.445 84.1172C114.796 84.7969 115.277 85.3945 115.886 85.9102C116.496 86.4258 117.129 86.9531 117.785 87.4922C118.441 88.0078 119.062 88.5586 119.648 89.1445C120.257 89.7305 120.703 90.4102 120.984 91.1836C121.101 91.4883 121.16 91.8047 121.16 92.1328C121.16 92.625 121.066 93.1406 120.879 93.6797C120.691 94.2188 120.41 94.7109 120.035 95.1562C119.683 95.6016 119.226 95.9648 118.664 96.2461C118.101 96.5508 117.433 96.7031 116.66 96.7031C115.793 96.7031 114.996 96.5625 114.269 96.2812C113.566 96.0234 112.945 95.6719 112.406 95.2266L111.738 94.8047L111.421 94.4883C111.07 94.1836 110.882 93.8086 110.859 93.3633V93.1523C110.929 92.707 111.082 92.3906 111.316 92.2031C111.574 91.9922 111.879 91.8633 112.23 91.8164C112.699 91.8164 113.132 92.0625 113.531 92.5547L114.375 93.0117C114.703 93.1992 115.066 93.3867 115.464 93.5742C115.886 93.7617 116.296 93.8555 116.695 93.8555C117.023 93.8555 117.339 93.7617 117.644 93.5742L117.855 93.3984C117.925 93.1875 117.984 92.9766 118.031 92.7656C118.101 92.5547 118.136 92.3555 118.136 92.168C118.136 91.8164 118.054 91.5234 117.89 91.2891C117.75 91.0312 117.55 90.8086 117.293 90.6211C117.058 90.4102 116.8 90.2227 116.519 90.0586C116.238 89.8711 115.957 89.6719 115.675 89.4609C115.418 89.2734 115.054 88.9805 114.586 88.582C114.14 88.1602 113.683 87.6914 113.214 87.1758C112.746 86.6602 112.336 86.1211 111.984 85.5586C111.656 84.9727 111.492 84.4336 111.492 83.9414C111.492 83.3555 111.668 82.8633 112.019 82.4648C112.371 82.043 112.804 81.7148 113.32 81.4805C113.836 81.2227 114.375 81.0469 114.937 80.9531C115.5 80.8359 115.98 80.7773 116.379 80.7773C117.035 80.7773 117.621 80.8242 118.136 80.918C118.675 81.0117 119.25 81.1523 119.859 81.3398ZM130.963 92.8711C131.267 92.5195 131.525 92.2969 131.736 92.2031C131.971 92.0859 132.217 92.0273 132.474 92.0273C132.873 92.0273 133.166 92.1914 133.353 92.5195C133.564 92.8477 133.67 93.2227 133.67 93.6445C133.553 94.0898 133.353 94.4648 133.072 94.7695C132.814 95.0742 132.498 95.3203 132.123 95.5078C131.748 95.6953 131.338 95.8359 130.892 95.9297C130.447 96 130.002 96.0352 129.556 96.0352C129.088 96.0117 128.619 95.9414 128.15 95.8242C127.705 95.707 127.283 95.5547 126.885 95.3672C126.486 95.1562 126.135 94.9219 125.83 94.6641C125.549 94.3828 125.349 94.0664 125.232 93.7148C124.693 92.3789 124.33 91.0078 124.142 89.6016C123.955 88.1719 123.861 86.7891 123.861 85.4531V84.5742L121.681 84.8906C121.213 84.8438 120.849 84.6797 120.592 84.3984C120.357 84.1172 120.24 83.7773 120.24 83.3789C120.24 83.1211 120.334 82.8633 120.521 82.6055C120.709 82.3242 120.99 82.125 121.365 82.0078L123.931 81.6914C123.931 80.8711 123.955 80.0625 124.002 79.2656C124.072 78.4453 124.119 77.625 124.142 76.8047C124.4 75.9844 124.869 75.5273 125.549 75.4336C126.228 75.4336 126.721 75.8672 127.025 76.7344C126.978 77.6719 126.908 78.8438 126.814 80.25L126.744 81.2344C127.353 81.1406 127.986 81.0703 128.642 81.0234C129.299 80.9766 129.99 80.9531 130.717 80.9531C131.56 81.2578 131.982 81.7266 131.982 82.3594C131.935 82.6875 131.806 82.9922 131.596 83.2734C131.385 83.5312 131.068 83.707 130.646 83.8008C129.264 83.8008 127.939 83.9062 126.674 84.1172V85.0312C126.674 85.7812 126.697 86.5312 126.744 87.2812C126.791 88.0078 126.849 88.7109 126.92 89.3906C127.014 90.0469 127.131 90.6562 127.271 91.2188C127.412 91.7578 127.576 92.2031 127.764 92.5547C128.068 92.6953 128.42 92.8359 128.818 92.9766C129.217 93.0938 129.603 93.1523 129.978 93.1523C130.189 93.1523 130.471 93.0938 130.822 92.9766L130.963 92.8711Z" fill="white"/>
</svg>
