<svg width="105" height="58" viewBox="0 0 105 58" fill="none" xmlns="http://www.w3.org/2000/svg">
<path d="M34.66 0.236787C35.8936 0.892202 36.8178 1.62723 37.2353 2.98775C37.2712 3.1866 37.3071 3.38546 37.3441 3.59034C38.2261 3.07991 38.9692 2.6367 39.6926 1.91356C41.3262 1.19672 42.9682 0.895647 44.7253 1.24285C45.5571 1.70788 46.283 2.22008 47.0267 2.81483C47.9049 3.35302 48.409 3.38806 49.4225 3.25498C49.8066 2.92298 49.8066 2.92298 50.1984 2.58427C51.1975 1.84107 51.867 1.68814 53.1118 1.77077C54.0302 1.96581 54.7571 2.30952 55.4408 2.95762C56.4246 4.70377 55.9531 7.0303 55.4617 8.87218C55.351 9.12118 55.2403 9.37019 55.1262 9.62673C55.4026 9.46527 55.4026 9.46527 55.6845 9.30055C57.1175 8.67064 58.6285 8.72568 60.1589 8.95602C60.7408 9.33199 60.7408 9.33199 61.2074 9.79441C62.4179 10.8466 62.9547 10.7175 64.4813 10.6302C65.5211 10.634 66.0874 10.9759 66.8692 11.6389C67.3095 12.3725 67.3095 12.3725 67.5402 12.9803C67.8723 12.8696 68.2045 12.7589 68.5467 12.6449C69.9558 12.5145 70.6591 12.491 71.8599 13.2737C72.5729 13.9863 72.5729 13.9863 72.9084 14.6571C73.6324 14.7633 73.6324 14.7633 74.4811 14.7828C76.1499 14.9143 77.0043 15.2578 78.2766 16.3338C78.3873 16.5552 78.498 16.7765 78.6121 17.0045C79.2048 17.254 79.2048 17.254 79.9541 17.4447C80.2543 17.5303 80.5544 17.6159 80.8637 17.7041C81.2279 17.8052 81.592 17.9064 81.9672 18.0106C87.8889 19.6594 87.8889 19.6594 90.355 21.0288C90.7127 21.1801 91.0704 21.3314 91.4389 21.4873C96.8724 23.7889 101.823 27.1062 104.49 32.5304C105.156 34.5965 105.212 37.7284 104.405 39.7877C103.604 41.0955 102.729 42.3073 101.762 43.4976C101.373 43.9917 101.373 43.9917 100.976 44.4958C98.2449 47.747 93.9381 49.5334 90.1353 51.1991C89.4296 51.5104 88.7321 51.8353 88.034 52.1631C82.657 54.5696 76.6521 55.5003 70.8953 56.5765C70.5203 56.6476 70.1453 56.7187 69.7589 56.7919C64.3429 57.7598 58.848 57.6738 53.3648 57.6873C52.9933 57.6886 52.6219 57.69 52.2392 57.6913C47.2368 57.6999 42.3161 57.4596 37.3441 56.9118C36.9422 56.8697 36.5404 56.8276 36.1264 56.7842C32.1664 56.3517 28.4169 55.6971 24.5946 54.5643C23.7631 54.3537 22.9313 54.1441 22.0992 53.9355C14.6936 51.9441 6.21984 48.4679 1.84265 41.8208C0.241928 39.0371 -0.44267 36.4676 0.298773 33.2562C2.1846 27.8089 7.31974 24.3587 12.216 21.8318C13.0013 21.4536 13.7843 21.1033 14.5921 20.7773C15.6245 20.4194 15.6245 20.4194 16.2068 19.352C16.1102 18.4352 15.8913 17.7201 15.5148 16.8788C14.9506 15.2999 15.09 14.0269 15.5567 12.4353C16.3429 11.0664 17.1062 10.2676 18.5554 9.62673C19.7168 9.4383 20.8007 9.47102 21.9223 9.86908C22.1398 9.89977 22.3574 9.93046 22.5815 9.96209C23.1655 9.53146 23.1655 9.53146 23.6719 8.89314C24.5367 7.93732 25.1638 7.47123 26.377 7.04869C27.0804 6.78181 27.0804 6.78181 27.6142 6.27318C27.8781 5.26042 27.9743 4.27075 28.0899 3.2314C28.3519 1.91368 28.7873 1.31627 29.8763 0.551183C31.4582 -0.10535 32.9982 -0.104859 34.66 0.236787Z" fill="#3568FD"/>
<path d="M44.7254 8.95593C45.7633 9.06808 46.2651 9.14357 46.9902 9.92008C47.4095 10.6327 47.4095 10.6327 47.7451 11.6388C48.7105 11.5009 49.0367 11.3607 49.6952 10.6117C50.4292 9.962 50.4292 9.962 51.5825 9.73144C52.904 9.98635 53.0244 10.1014 53.7633 11.1357C54.0019 11.5222 54.2353 11.9122 54.4553 12.3095C55.6708 12.1766 55.6708 12.1766 56.5942 11.4501C57.1394 10.9681 57.1394 10.9681 58.2718 10.8004C59.7871 11.0093 60.2307 11.4631 61.1656 12.6448C61.2763 12.9768 61.387 13.3088 61.5011 13.6509C62.1771 13.8968 62.1771 13.8968 62.8431 13.9863C62.9538 13.6543 63.0646 13.3223 63.1786 12.9802C65.1078 12.9383 65.1078 12.9383 65.8627 13.3155C65.9994 14.0941 66.1125 14.8773 66.1982 15.663C67.3305 15.4795 67.9034 15.3093 68.8823 14.657C69.7631 14.5941 69.7631 14.5941 70.5599 14.657C71.0909 15.1877 71.012 15.7906 71.0841 16.5224C71.1122 16.7995 71.1404 17.0766 71.1693 17.3621C71.1897 17.5761 71.21 17.7901 71.2309 18.0105C72.5497 17.8179 72.5497 17.8179 73.5795 17.0045C75.6513 16.8162 75.6513 16.8162 76.5021 17.3948C77.1075 18.2566 77.0343 18.877 76.9975 19.9179C76.9839 20.4178 76.9839 20.4178 76.97 20.9278C76.9583 21.1825 76.9467 21.4371 76.9346 21.6994C77.2668 21.5334 77.5989 21.3674 77.9412 21.1964C79.3588 20.5928 80.4332 20.5425 81.9673 20.6934C82.7851 21.0706 82.7851 21.0706 83.3094 21.6994C83.561 22.7684 83.561 22.7684 83.6449 23.7116C84.0878 23.8222 84.5306 23.9329 84.9869 24.0469C85.0977 23.7149 85.2084 23.3829 85.3224 23.0408C86.9581 23.3343 86.9581 23.3343 87.3355 23.7116C87.3493 24.4939 87.3498 25.2767 87.3355 26.059C87.5418 26.0513 87.7481 26.0435 87.9607 26.0355C88.2318 26.0294 88.503 26.0234 88.7824 26.0171C89.051 26.0093 89.3196 26.0016 89.5963 25.9935C90.3551 26.059 90.3551 26.059 91.3617 26.7298C91.401 27.6284 91.401 27.6284 91.3197 28.7C91.2714 29.7759 91.2714 29.7759 91.3617 30.754C92.0948 31.6031 92.0948 31.6031 93.0392 32.0954C94.2059 33.5431 94.1366 34.6692 94.0458 36.4551C93.6721 36.5173 93.2984 36.5796 92.9134 36.6437C92.5121 36.8028 92.1107 36.9619 91.6972 37.1258C91.254 38.2848 91.254 38.2848 91.0262 39.4733C89.9898 40.1638 89.7816 40.2241 88.6147 40.1859C88.1925 40.172 87.7704 40.1582 87.3355 40.144C87.3078 40.4068 87.2802 40.6696 87.2516 40.9404C87 41.8207 87 41.8207 86.4391 42.2137C85.168 42.6656 83.9259 42.4671 82.5964 42.384C81.3797 42.5195 81.096 42.952 80.2898 43.8329C79.0945 43.9796 79.0945 43.9796 77.9412 43.8329C77.375 43.3089 77.375 43.3089 76.9346 42.8268C76.2444 42.8314 76.2444 42.8314 75.5926 43.1622C75.4473 43.3351 75.3019 43.508 75.1522 43.6862C74.586 44.1682 74.586 44.1682 73.4118 44.294C72.2375 44.1682 72.2375 44.1682 71.6084 43.7281C71.2309 43.1622 71.2309 43.1622 70.8954 42.1561C70.4525 42.1561 70.0097 42.1561 69.5534 42.1561C69.3942 42.4328 69.235 42.7094 69.0711 42.9945C68.5468 43.8329 68.5468 43.8329 67.708 44.0425C66.8693 43.8329 66.8693 43.8329 66.2611 42.9945C66.0639 42.5795 66.0639 42.5795 65.8627 42.1561C65.0691 42.1965 65.0691 42.1965 64.1852 42.4914C63.9637 42.775 63.7423 43.0586 63.5141 43.3508C62.8431 44.1682 62.8431 44.1682 62.0043 44.3988C60.7681 44.059 60.4995 43.2024 59.8235 42.1561C59.3806 42.1561 58.9377 42.1561 58.4815 42.1561C58.3292 42.3774 58.177 42.5988 58.0201 42.8268C57.8402 43.0481 57.6603 43.2695 57.4749 43.4975C56.4055 43.5814 56.4055 43.5814 55.4618 43.4975C55.3857 43.2831 55.3096 43.0687 55.2312 42.8478C54.8403 42.0649 54.8403 42.0649 53.9101 41.9046C53.6471 41.8769 53.3842 41.8492 53.1133 41.8207C52.9576 42.1424 52.9576 42.1424 52.7987 42.4705C52.4422 43.1622 52.4422 43.1622 52.1067 43.4975C51.1702 43.5579 50.3457 43.6105 49.4226 43.4975C49.0871 43.1622 48.7516 42.8268 48.4161 42.4914C46.4543 42.2588 45.4395 42.5817 43.7517 43.5342C42.5395 44.0486 41.3197 43.9404 40.0283 43.8329C39.9175 43.6115 39.8068 43.3902 39.6928 43.1622C40.1067 42.9488 40.1067 42.9488 40.5289 42.7312C42.3247 41.7881 43.9992 40.895 45.5852 39.62C47.4169 38.2739 49.4659 37.7607 51.6389 37.1984C54.8872 36.3361 57.2677 34.9704 59.4251 32.3679C60.1829 30.5739 60.0546 28.7641 59.446 26.9394C58.4719 25.5761 57.2865 24.9342 55.7764 24.2565C53.7436 23.1325 52.6096 20.9991 51.3505 19.107C50.3444 17.7998 49.4422 17.2498 47.8289 16.9416C47.5608 16.8884 47.2926 16.8352 47.0164 16.7804C46.814 16.7437 46.6115 16.707 46.403 16.6691C46.403 16.1158 46.403 15.5624 46.403 14.9923C45.9601 14.9923 45.5173 14.9923 45.061 14.9923C45.227 15.8223 45.227 15.8223 45.3965 16.6691C43.1018 17.7394 41.2413 18.5914 38.6862 18.3459C38.8592 18.2075 39.0322 18.0692 39.2105 17.9267C39.3696 17.733 39.5288 17.5393 39.6928 17.3398C39.6164 16.6144 39.6164 16.6144 39.3572 15.9984C38.9144 16.1091 38.4715 16.2197 38.0152 16.3337C38.1813 17.6618 38.1813 17.6618 38.3507 19.0166C38.1328 19.0197 37.9148 19.0229 37.6902 19.0261C36.6869 19.0443 35.6841 19.0723 34.681 19.1004C34.3383 19.1052 33.9955 19.1099 33.6424 19.1148C31.3441 19.1882 29.6347 19.6003 27.6143 20.6934C27.2683 20.8663 26.9223 21.0392 26.5658 21.2174C25.3423 22.2542 24.6593 23.4302 23.8372 24.7962C23.0763 26.0034 22.1893 27.0089 21.2396 28.0712C20.7863 28.9772 20.7905 29.7876 20.7153 30.7959C20.6872 31.1634 20.6591 31.5308 20.6301 31.9094C20.5997 32.3335 20.5997 32.3335 20.5685 32.7661C20.2364 32.7661 19.9042 32.7661 19.562 32.7661C19.562 33.2088 19.562 33.6515 19.562 34.1076C19.7973 34.1076 20.0326 34.1076 20.275 34.1076C21.58 34.5613 21.991 35.3281 22.7402 36.4524C24.3929 38.6241 27.4437 39.5517 30.0682 39.9165C31.7088 40.0686 33.3486 40.122 34.9956 40.144C35.0099 40.8145 35.0093 41.4855 34.9956 42.1561C34.8849 42.2668 34.7741 42.3774 34.6601 42.4914C32.4054 42.25 32.4054 42.25 31.976 41.8207C31.2936 41.7538 31.2936 41.7538 30.5081 41.7579C30.2425 41.7531 29.977 41.7483 29.7034 41.7434C28.86 41.7721 28.86 41.7721 27.9498 42.4914C27.153 42.701 27.153 42.701 26.2723 42.4914C25.4381 41.4667 24.8481 40.3152 24.2592 39.1379C23.1771 39.2581 22.7076 39.3299 21.9735 40.1649C21.0753 40.9601 20.4026 41.0259 19.216 40.9706C18.1013 40.7075 17.564 40.0107 16.8779 39.1379C16.7118 38.8059 16.7118 38.8059 16.5424 38.4672C15.9834 38.4529 15.4239 38.4536 14.8648 38.4672C14.6988 38.6332 14.6988 38.6332 14.5293 38.8025C13.376 38.8864 13.376 38.8864 12.1807 38.8025C11.4003 37.6324 11.4256 37.1577 11.5097 35.7843C11.6031 35.4212 11.6031 35.4212 11.6984 35.0508C11.9197 34.37 11.9197 34.37 11.5097 33.4369C11.1776 33.2155 10.8454 32.9942 10.5032 32.7661C10.5032 32.2128 10.5032 31.6595 10.5032 31.0894C11.6104 31.2 12.7176 31.3107 13.8583 31.4247C13.7545 31.1204 13.6507 30.8161 13.5438 30.5025C13.2784 29.6913 13.0516 28.8988 12.8518 28.0712C13.0901 27.9648 13.3284 27.8585 13.5739 27.7489C14.5539 27.2516 15.3763 26.7812 16.2069 26.059C16.4915 25.1543 16.5255 24.4436 16.4887 23.4993C16.559 22.4602 16.7783 22.0641 17.5489 21.3641C18.5279 21.2331 18.5279 21.2331 19.6249 21.2802C19.9895 21.2923 20.3541 21.3044 20.7297 21.3169C21.0087 21.3325 21.2877 21.348 21.5751 21.3641C21.672 20.9352 21.7688 20.5064 21.8687 20.0646C22.0921 19.0754 22.1797 18.7476 22.9171 18.0105C24.5205 17.9163 26.0326 18.0878 27.6143 18.3459C27.8357 17.5712 28.0572 16.7965 28.2853 15.9984C29.0612 15.7888 29.0612 15.7888 29.9629 15.663C30.2951 15.8844 30.6272 16.1057 30.9694 16.3337C31.4123 16.3337 31.8552 16.3337 32.3115 16.3337C32.2976 15.9602 32.2838 15.5867 32.2695 15.2019C32.3115 13.9863 32.3115 13.9863 32.9825 13.3155C33.8213 13.2317 33.8213 13.2317 34.6601 13.3155C34.9922 13.6476 34.9922 13.6476 35.3311 13.9863C35.774 13.9863 36.2168 13.9863 36.6731 13.9863C36.706 13.7839 36.7389 13.5816 36.7727 13.3732C37.0068 12.1228 37.2068 11.1691 37.9313 10.1087C38.9373 9.46628 39.5254 9.45553 40.6993 9.62664C41.1561 9.94897 41.6047 10.2836 42.0413 10.6327C42.4842 10.6327 42.9271 10.6327 43.3834 10.6327C44.1446 9.82155 44.1446 9.82155 44.7254 8.95593Z" fill="#F1F1F1"/>
<path d="M89.3485 23.0409C90.845 23.2377 92.0068 23.8398 93.2908 24.5919C93.4978 24.7121 93.7047 24.8322 93.918 24.956C97.384 27.0057 101.317 29.7109 102.634 33.7107C102.81 34.663 102.8 35.5713 102.79 36.5389C102.787 36.9003 102.784 37.2617 102.781 37.6341C102.775 38.0465 102.775 38.0465 102.769 38.4672C102.548 38.4672 102.326 38.4672 102.098 38.4672C102.036 38.737 101.973 39.0067 101.909 39.2847C100.567 42.6102 97.9309 44.5315 95.0522 46.5158C94.722 46.7589 94.722 46.7589 94.3851 47.007C92.3461 48.4215 89.9531 49.1545 87.6318 49.978C87.1001 50.1687 86.5718 50.369 86.0445 50.5715C79.1276 53.2215 71.8501 54.4175 64.5206 55.235C64.2308 55.2683 63.9411 55.3016 63.6425 55.3359C60.1847 55.6808 56.7102 55.6374 53.239 55.6332C52.9025 55.6329 52.566 55.6326 52.2194 55.6323C37.4086 55.6023 17.5386 54.5506 6.18206 43.5631C5.94722 43.3201 5.71237 43.0772 5.47041 42.8268C5.23903 42.5908 5.00764 42.3548 4.76924 42.1116C2.63758 39.8197 2.25358 37.7316 2.3027 34.6251C2.53533 32.7587 3.29812 31.5275 4.46387 30.0834C4.62606 29.8784 4.78825 29.6735 4.95535 29.4624C6.76537 27.4461 9.21724 26.1152 11.5096 24.7177C11.8132 24.5223 12.1169 24.3269 12.4297 24.1256C13.1872 23.7116 13.1872 23.7116 14.1937 23.7116C14.1308 24.4871 14.1308 24.4871 13.8582 25.3884C12.5046 26.3944 12.5046 26.3944 11.5096 26.3944C11.5096 26.6158 11.5096 26.8371 11.5096 27.0652C11.1775 27.2312 11.1775 27.2312 10.8386 27.4005C10.7417 27.6633 10.6449 27.9262 10.545 28.197C10.1676 29.0773 10.1676 29.0773 9.47559 29.4965C8.54402 30.3375 8.57779 31.1349 8.4507 32.3457C8.49517 33.2005 8.73071 33.7111 9.16105 34.443C9.38249 34.443 9.60392 34.443 9.83207 34.443C9.82039 34.6898 9.80872 34.9366 9.79669 35.191C9.67334 37.6853 9.67334 37.6853 10.8386 39.8087C11.9297 40.8141 12.6415 40.93 14.1099 40.8776C14.4403 40.8685 14.7707 40.8594 15.1111 40.8501C15.4874 40.8326 15.4874 40.8326 15.8713 40.8147C15.982 41.1467 16.0927 41.4787 16.2068 41.8208C16.7604 41.9314 17.314 42.0421 17.8844 42.1561C17.8844 42.3775 17.8844 42.5988 17.8844 42.8268C18.2524 42.759 18.6205 42.6911 18.9997 42.6212C19.4876 42.5425 19.9756 42.4644 20.4636 42.3867C20.7056 42.3407 20.9476 42.2946 21.1969 42.2472C21.9144 42.1391 21.9144 42.1391 23.2526 42.1561C24.2237 42.9382 24.2237 42.9382 24.9301 43.8329C25.7346 44.637 26.0483 44.6186 27.1529 44.7132C27.4271 44.7383 27.7013 44.7634 27.9838 44.7892C28.2991 44.8138 28.2991 44.8138 28.6208 44.839C28.6208 44.6176 28.6208 44.3963 28.6208 44.1683C29.7733 43.4003 30.2934 43.4377 31.6404 43.4976C31.6404 43.7189 31.6404 43.9402 31.6404 44.1683C33.8106 44.2446 33.8106 44.2446 35.9391 43.9168C36.6731 43.8329 36.6731 43.8329 37.5328 44.4617C37.8027 44.6969 38.0726 44.932 38.3506 45.1743C40.2142 45.8115 42.6853 45.9121 44.5196 45.1979C44.9623 44.9535 45.4021 44.7037 45.8381 44.4473C46.4029 44.1683 46.4029 44.1683 47.3675 44.2102C48.0805 44.5036 48.0805 44.5036 48.7515 45.1743C49.5899 45.2689 49.5899 45.2689 50.5339 45.2372C50.8509 45.2351 51.168 45.2329 51.4946 45.2307C52.4414 45.2019 52.4414 45.2019 53.3373 44.9608C54.1197 44.839 54.1197 44.839 55.1262 45.5097C56.4164 45.5721 57.4965 45.5794 58.754 45.3001C59.4879 45.1743 59.4879 45.1743 60.4944 45.845C62.3488 45.9945 63.3041 45.934 64.8561 44.839C65.0775 44.839 65.299 44.839 65.5271 44.839C65.6655 45.005 65.8039 45.171 65.9465 45.342C66.5257 45.9338 66.5257 45.9338 67.4773 45.9498C68.5654 45.8904 68.5654 45.8904 69.5952 45.4468C69.9135 45.3569 70.2319 45.267 70.5598 45.1743C70.7605 45.3265 70.9612 45.4787 71.1679 45.6354C72.3167 46.4884 73.5369 46.3825 74.9215 46.1804C75.6813 45.6882 75.6813 45.6882 76.2635 45.1743C76.7136 45.2745 77.1606 45.3887 77.6056 45.5097C78.1708 45.5481 78.7376 45.5683 79.3041 45.5726C79.7355 45.5797 79.7355 45.5797 80.1757 45.587C81.052 45.5628 81.052 45.5628 81.9672 44.839C83.0196 44.7735 83.0196 44.7735 84.211 44.7971C84.6067 44.8031 85.0024 44.8092 85.4102 44.8154C85.7134 44.8232 86.0165 44.831 86.3289 44.839C86.3289 44.6176 86.3289 44.3963 86.3289 44.1683C86.8827 43.8242 87.4427 43.4898 88.0065 43.1622C88.1639 42.9949 88.3213 42.8276 88.4835 42.6552C89.0887 42.0848 89.5425 41.9289 90.3341 41.695C91.8975 41.1521 92.6374 40.2764 93.3747 38.8026C94.0457 38.4672 94.7167 38.1319 95.3877 37.7965C96.0919 36.3888 95.7796 34.7153 95.4716 33.2273C94.9881 31.9225 94.3696 30.7424 93.3747 29.748C93.3304 29.2177 93.2973 28.6865 93.2698 28.1551C93.1231 26.623 92.9197 25.7468 91.6971 24.7177C90.481 24.2621 90.481 24.2621 89.3485 24.047C89.3485 23.715 89.3485 23.383 89.3485 23.0409Z" fill="#FEFCEE"/>
<path d="M46.403 19.352C45.8494 19.9054 45.2958 20.4587 44.7254 21.0288C44.8984 20.8628 45.0714 20.6968 45.2497 20.5258C46.3858 19.8269 47.1055 19.8356 48.416 20.0227C49.15 20.8611 49.15 20.8611 49.7581 21.6995C50.201 21.6995 50.6439 21.6995 51.1001 21.6995C51.5654 22.386 51.5654 22.386 52.0018 23.2925C52.9186 24.9419 53.6578 25.4744 55.3976 26.1129C56.6163 26.5797 57.2733 27.0873 58.1459 28.0713C58.3992 29.666 58.3256 30.3724 57.6426 31.8231C55.6598 34.0527 53.0242 35.0121 50.2024 35.7884C47.1109 36.6545 44.9059 37.7694 42.3768 39.8087C41.1589 40.6923 40.3244 41.1551 38.7701 41.1292C37.2383 40.6875 37.2383 40.6875 36.6731 39.8087C36.5514 39.2519 36.4385 38.6929 36.3376 38.1319C36.0133 38.1272 36.0133 38.1272 35.6825 38.1224C34.6844 38.1042 33.6868 38.0762 32.6889 38.0481C32.349 38.0433 32.009 38.0386 31.6588 38.0337C29.1282 37.9526 26.5535 37.6322 24.6132 35.8588C23.0087 34.0833 22.4225 32.6369 22.4754 30.2432C22.6337 29.0054 23.0841 28.3078 23.9236 27.4006C24.2212 27.2899 24.5188 27.1792 24.8253 27.0652C25.0814 26.9545 25.3374 26.8439 25.6012 26.7299C25.854 25.745 25.854 25.745 25.9367 24.7177C26.1582 24.3857 26.3796 24.0537 26.6077 23.7117C26.8292 23.7117 27.0506 23.7117 27.2788 23.7117C27.2788 23.4903 27.2788 23.269 27.2788 23.0409C30.2495 20.7234 33.322 20.9129 36.9254 20.8683C39.1029 20.8146 40.7182 20.5612 42.7123 19.6874C43.2535 19.5328 43.7983 19.3894 44.348 19.2682C44.5962 19.2111 44.8445 19.1541 45.1002 19.0953C45.732 19.0167 45.732 19.0167 46.403 19.352Z" fill="#F5F5F5"/>
<path d="M34.66 0.236787C35.8937 0.892202 36.8178 1.62723 37.2353 2.98775C37.2712 3.1866 37.3071 3.38546 37.3441 3.59034C38.2262 3.07991 38.9692 2.6367 39.6927 1.91356C41.3263 1.19672 42.9683 0.895647 44.7254 1.24285C45.5571 1.70788 46.283 2.22008 47.0268 2.81483C47.905 3.35302 48.4091 3.38806 49.4226 3.25498C49.8066 2.92298 49.8066 2.92298 50.1984 2.58427C51.1976 1.84107 51.867 1.68814 53.1119 1.77077C54.0302 1.96581 54.7571 2.30952 55.4408 2.95762C56.4246 4.70377 55.9532 7.0303 55.4618 8.87218C55.3511 9.12118 55.2403 9.37018 55.1263 9.62673C55.3105 9.51909 55.4948 9.41145 55.6846 9.30055C57.1175 8.67064 58.6286 8.72568 60.159 8.95602C60.7409 9.33199 60.7409 9.33199 61.2074 9.79441C62.418 10.8466 62.9548 10.7175 64.4813 10.6302C65.5212 10.634 66.0875 10.9759 66.8692 11.6389C67.3096 12.3725 67.3096 12.3725 67.5402 12.9803C67.2081 13.2016 66.8759 13.423 66.5337 13.651C66.2876 14.679 66.2876 14.679 66.1982 15.6631C66.0875 15.6631 65.9767 15.6631 65.8627 15.6631C65.8627 14.8885 65.8627 14.1138 65.8627 13.3156C64.9769 13.3156 64.0912 13.3156 63.1786 13.3156C63.0678 13.537 62.9571 13.7583 62.843 13.9863C62.0462 13.9235 62.0462 13.9235 61.1655 13.651C60.788 12.8336 60.788 12.8336 60.4945 11.9742C59.2462 11.1424 58.6163 11.1481 57.1393 11.3035C56.6854 11.7439 56.2372 12.1905 55.7973 12.6449C54.9585 12.6868 54.9585 12.6868 54.1197 12.3096C53.9121 11.9707 53.7045 11.6317 53.4906 11.2825C52.8616 10.1784 52.8616 10.1784 51.6244 10.0669C50.1654 10.3483 49.752 10.9201 48.7515 11.9742C48.0386 12.0371 48.0386 12.0371 47.4095 11.6389C47.2503 11.3069 47.0912 10.9749 46.9272 10.6328C46.5098 9.54515 46.5098 9.54515 45.5013 9.3333C45.2452 9.31946 44.9892 9.30563 44.7254 9.29138C44.2825 9.84471 43.8396 10.398 43.3833 10.9682C42.2511 10.7846 41.6781 10.6144 40.6992 9.96209C39.707 9.76642 39.707 9.76642 38.6862 9.96209C37.3567 11.1473 37.1449 12.2493 37.0086 13.9863C36.2118 14.1959 36.2118 14.1959 35.331 14.3217C35.1096 14.1004 34.8882 13.879 34.66 13.651C33.7932 13.595 33.7932 13.595 32.9824 13.651C32.934 13.9 32.8856 14.149 32.8357 14.4055C32.6799 15.1669 32.5065 15.9172 32.3114 16.6692C31.0758 16.4681 29.8469 16.2508 28.6208 15.9985C28.2886 16.8838 27.9565 17.7692 27.6142 18.6813C27.2868 18.6454 26.9594 18.6096 26.6221 18.5726C26.1952 18.5324 25.7684 18.4922 25.3286 18.4508C24.6921 18.3866 24.6921 18.3866 24.0429 18.3211C22.9297 18.2355 22.9297 18.2355 22.2631 18.8424C22.1467 19.0106 22.0304 19.1788 21.9105 19.352C21.9105 18.9094 21.9105 18.4667 21.9105 18.0106C21.6061 18.1766 21.3016 18.3426 20.9879 18.5136C19.8975 19.0167 19.8975 19.0167 18.5554 19.0167C18.4516 18.6363 18.3478 18.2558 18.2409 17.8639C18.0088 16.7404 18.0088 16.7404 17.5489 16.3338C17.4701 15.6018 17.4101 14.8677 17.3601 14.1331C17.332 13.7315 17.3039 13.3299 17.275 12.9161C17.2546 12.6053 17.2343 12.2945 17.2134 11.9742C17.1026 11.9742 16.9919 11.9742 16.8778 11.9742C16.7671 12.1956 16.6564 12.4169 16.5423 12.6449C16.2135 12.9868 15.8787 13.3232 15.5358 13.651C15.6753 12.0244 16.3466 11.3561 17.5489 10.2974C18.7916 9.46934 19.8007 9.50804 21.2395 9.62673C21.4666 9.70541 21.6936 9.78409 21.9276 9.86515C22.2513 9.91313 22.2513 9.91313 22.5816 9.96209C23.1656 9.53146 23.1656 9.53146 23.672 8.89314C24.5367 7.93732 25.1639 7.47123 26.377 7.04869C27.0804 6.78181 27.0804 6.78181 27.6142 6.27318C27.8782 5.26042 27.9743 4.27075 28.09 3.2314C28.3519 1.91368 28.7874 1.31627 29.8763 0.551183C31.4582 -0.10535 32.9982 -0.104859 34.66 0.236787Z" fill="#3568FD"/>
<path d="M66.8691 12.6449C68.6796 12.3481 70.3717 12.3371 71.9647 13.2736C72.5728 13.9863 72.5728 13.9863 72.9083 14.657C73.6323 14.7632 73.6323 14.7632 74.481 14.7827C76.1498 14.9142 77.0042 15.2577 78.2765 16.3338C78.3872 16.5551 78.4979 16.7764 78.612 17.0045C79.2047 17.254 79.2047 17.254 79.9541 17.4446C80.2542 17.5302 80.5544 17.6158 80.8636 17.704C81.2278 17.8052 81.5919 17.9063 81.9671 18.0105C87.8888 19.6593 87.8888 19.6593 90.3549 21.0287C90.7126 21.18 91.0703 21.3313 91.4388 21.4872C96.8724 23.7888 101.822 27.1062 104.49 32.5304C105.156 34.5964 105.212 37.7283 104.405 39.7877C103.603 41.0955 102.728 42.3072 101.762 43.4975C101.373 43.9916 101.373 43.9916 100.976 44.4957C98.2448 47.7469 93.938 49.5333 90.1352 51.1991C89.4295 51.5103 88.732 51.8352 88.0339 52.1631C82.6569 54.5695 76.652 55.5002 70.8952 56.5764C70.5202 56.6475 70.1452 56.7186 69.7588 56.7919C64.3428 57.7597 58.8479 57.6738 53.3647 57.6872C52.9933 57.6886 52.6218 57.6899 52.2391 57.6913C47.2368 57.6998 42.316 57.4595 37.344 56.9117C36.9421 56.8696 36.5403 56.8275 36.1263 56.7841C35.1956 56.6824 34.2672 56.571 33.3388 56.4506C33.0214 56.4096 32.704 56.3686 32.377 56.3263C30.0542 56.007 27.8352 55.5181 25.5879 54.8551C24.6144 54.5466 24.6144 54.5466 23.664 54.4202C22.9169 54.2289 22.9169 54.2289 22.2459 53.2228C22.0245 53.1122 21.803 53.0015 21.5749 52.8875C21.7963 52.5555 22.0178 52.2235 22.2459 51.8814C23.7702 52.0251 25.1706 52.2637 26.6417 52.691C39.6477 56.2971 55.127 56.4214 68.4133 54.352C69.1188 54.244 69.8274 54.1562 70.5361 54.0717C77.6192 53.2215 84.5313 51.0861 91.026 48.1925C91.2989 48.0918 91.5718 47.9911 91.8529 47.8873C92.9791 47.4034 93.9859 46.7627 95.0102 46.0965C95.2184 45.9613 95.4266 45.826 95.6411 45.6867C98.4981 43.8064 100.978 41.8245 102.098 38.4672C102.319 38.4672 102.541 38.4672 102.769 38.4672C102.453 33.9036 102.453 33.9036 100.085 30.0833C99.9241 29.9065 99.7633 29.7296 99.5977 29.5474C98.1274 27.9946 96.5537 26.889 94.7166 25.8075C94.4588 25.6506 94.2011 25.4937 93.9355 25.332C92.4448 24.4375 90.9633 23.6848 89.3484 23.0409C89.3484 23.3729 89.3484 23.7049 89.3484 24.0469C89.7013 24.0608 90.0542 24.0746 90.4178 24.0889C91.712 24.3857 92.2717 24.6776 93.0666 25.742C93.5582 26.7834 93.5498 27.8278 93.6078 28.9646C93.7533 30.079 94.2716 30.6446 95.0521 31.4247C95.7929 32.5353 95.9099 33.1298 96.0586 34.4429C96.0846 34.6634 96.1105 34.8839 96.1373 35.111C96.2298 36.4717 96.1238 37.0413 95.2828 38.1318C94.3811 38.8026 94.3811 38.8026 93.3746 38.8026C93.2604 39.1761 93.2604 39.1761 93.1439 39.5571C92.2216 41.4886 90.5539 42.023 88.6774 42.8268C87.7225 43.5169 87.7225 43.5169 86.9998 44.1682C86.6677 43.7256 86.3355 43.2829 85.9933 42.8268C86.8237 42.4948 86.8237 42.4948 87.6708 42.1561C87.6708 41.4921 87.6708 40.8281 87.6708 40.144C87.9803 40.118 87.9803 40.118 88.296 40.0916C89.1675 39.9693 89.885 39.8325 90.6905 39.4733C91.0763 38.7863 91.2473 38.1467 91.4454 37.3865C91.5284 37.1898 91.6114 36.9931 91.697 36.7904C92.7664 36.4551 92.7664 36.4551 93.7101 36.4551C93.8356 34.1061 93.8356 34.1061 92.7035 32.0955C92.2468 31.8361 92.2468 31.8361 91.7809 31.5715C91.026 30.754 91.026 30.754 90.9932 29.7755C91.0804 28.7566 91.2183 27.7423 91.3615 26.7298C90.0328 26.5084 88.7042 26.2871 87.3353 26.0591C87.2246 25.2844 87.1139 24.5097 86.9998 23.7116C86.4462 23.6009 85.8926 23.4902 85.3223 23.3762C85.2115 23.5976 85.1008 23.8189 84.9867 24.0469C84.4331 23.9363 83.8795 23.8256 83.3092 23.7116C83.2746 23.3934 83.24 23.0752 83.2043 22.7474C83.0792 21.6018 83.0792 21.6018 81.9671 21.0287C81.3122 20.9232 81.3122 20.9232 80.6251 20.9449C80.3967 20.9432 80.1684 20.9414 79.9331 20.9397C79.1743 20.9955 79.1743 20.9955 78.2765 21.6994C77.8336 21.6994 77.3907 21.6994 76.9344 21.6994C76.918 21.4409 76.9016 21.1824 76.8846 20.9161C76.847 20.4116 76.847 20.4116 76.8086 19.8969C76.7736 19.395 76.7736 19.395 76.7379 18.883C76.6782 17.9585 76.6782 17.9585 75.9279 17.3398C74.7677 17.2001 74.7677 17.2001 73.5793 17.3398C73.2373 17.6685 72.9008 18.0032 72.5728 18.3459C71.6711 18.2411 71.6711 18.2411 70.8952 18.0105C70.7845 17.0145 70.6738 16.0185 70.5597 14.9923C68.877 15.1029 68.877 15.1029 67.5401 15.9984C67.0972 15.9984 66.6543 15.9984 66.198 15.9984C66.1142 13.7767 66.1142 13.7767 66.8691 12.6449Z" fill="#3568FD"/>
<path d="M73.5899 21.0169C75.9953 22.2811 77.9058 23.662 79.2831 26.059C79.2831 26.2803 79.2831 26.5017 79.2831 26.7297C79.5599 26.7989 79.8367 26.868 80.1219 26.9393C82.8263 28.0013 85.1947 30.0908 86.4547 32.7242C86.8295 34.5974 86.9833 36.1273 86.1401 37.8803C84.7539 39.4435 83.8997 40.3669 81.7968 40.622C80.9134 40.6668 80.0296 40.7034 79.1455 40.7321C78.1014 40.8036 77.4165 40.9269 76.4732 41.3386C74.2202 42.2316 72.1732 41.9836 69.932 41.1382C67.4836 40.029 66.1891 38.4255 64.8561 36.1196C64.7281 35.9087 64.6 35.6977 64.4681 35.4804C64.0944 34.5533 64.1083 33.7838 64.1221 32.7871C64.1243 32.4451 64.1265 32.1032 64.1287 31.7509C64.185 30.754 64.185 30.754 64.3764 29.8357C64.5955 29.0621 64.5955 29.0621 64.206 28.3226C63.5508 26.6277 63.637 24.9958 64.227 23.2923C66.4139 20.0864 70.0991 19.4797 73.5899 21.0169Z" fill="#3568FD"/>
<path d="M33.3337 2.09444C34.5506 2.3815 34.9458 2.91333 35.6665 3.92579C37.5775 7.6069 37.5775 7.6069 37.0086 9.96219C37.3407 9.74085 37.6729 9.51952 38.0151 9.29148C38.0151 10.6329 38.0151 10.6329 37.3441 11.639C37.212 12.4183 37.0976 13.201 37.0086 13.9864C36.2118 14.196 36.2118 14.196 35.331 14.3218C35.1096 14.1005 34.8882 13.8791 34.66 13.6511C33.7932 13.5951 33.7932 13.5951 32.9824 13.6511C32.934 13.9001 32.8856 14.1491 32.8357 14.4056C32.6799 15.167 32.5065 15.9173 32.3114 16.6693C31.0758 16.4682 29.8469 16.2509 28.6208 15.9986C28.2886 16.8839 27.9565 17.7693 27.6142 18.6814C27.2868 18.6455 26.9594 18.6097 26.6221 18.5727C26.1952 18.5325 25.7684 18.4923 25.3286 18.4509C24.6921 18.3867 24.6921 18.3867 24.0429 18.3212C22.9297 18.2356 22.9297 18.2356 22.2631 18.8425C22.1467 19.0107 22.0304 19.1789 21.9105 19.3521C21.9105 18.9095 21.9105 18.4668 21.9105 18.0107C21.6061 18.1767 21.3016 18.3427 20.9879 18.5137C19.8975 19.0168 19.8975 19.0168 18.5554 19.0168C18.4516 18.6364 18.3478 18.2559 18.2409 17.864C18.0088 16.7405 18.0088 16.7405 17.5489 16.3339C17.4701 15.6019 17.4101 14.8677 17.3601 14.1332C17.332 13.7316 17.3039 13.33 17.275 12.9162C17.2546 12.6054 17.2343 12.2946 17.2134 11.9743C17.1026 11.9743 16.9919 11.9743 16.8778 11.9743C16.7671 12.1957 16.6564 12.417 16.5423 12.645C16.2135 12.9869 15.8787 13.3233 15.5358 13.6511C15.6753 12.0245 16.3466 11.3562 17.5489 10.2975C18.5545 9.62741 18.7679 9.53444 19.8975 9.54299C20.24 9.5404 20.24 9.5404 20.5895 9.53775C21.2395 9.62683 21.2395 9.62683 22.246 10.2975C23.0405 10.1951 23.5927 9.95975 24.3011 9.58491C24.5087 9.48808 24.7163 9.39124 24.9301 9.29148C25.1516 9.40214 25.373 9.51281 25.6012 9.62683C26.5001 9.24134 26.5001 9.24134 27.4675 8.68364C27.8 8.50165 28.1326 8.31965 28.4753 8.13214C29.3253 7.69183 29.3253 7.69183 29.6273 6.94399C29.6699 6.46253 29.7038 5.98027 29.7322 5.49777C29.8483 4.43962 29.9919 3.86886 30.4871 2.89877C31.4371 2.14398 32.1221 2.00025 33.3337 2.09444Z" fill="#3568FD"/>
<path d="M44.0123 23.6488C45.1634 24.2837 45.6653 24.6181 46.4028 25.7238C46.6785 27.3696 46.7608 29.0119 46.0188 30.538C44.0786 32.9776 40.7099 34.5824 37.6795 35.1138C35.134 35.2941 32.9126 35.328 30.6338 34.1077C29.3811 32.931 28.6522 31.8973 28.5368 30.1673C28.5733 28.4819 29.0183 27.3829 30.1855 26.1313C33.8875 22.6595 39.3534 21.3685 44.0123 23.6488Z" fill="#F4F4F4"/>
<path d="M34.6599 0.236744C35.8936 0.892159 36.8177 1.62719 37.2353 2.9877C37.2712 3.18656 37.307 3.38542 37.344 3.5903C38.2261 3.07987 38.9691 2.63666 39.6926 1.91352C41.3443 1.18875 42.9466 1.01731 44.7253 1.24281C45.7528 1.74584 45.7528 1.74584 46.4029 2.24888C45.8154 2.98821 45.5398 3.23711 44.5851 3.35581C44.2784 3.35711 43.9718 3.3584 43.6559 3.35974C41.6139 3.47916 40.4883 4.2288 39.0216 5.60243C39.1877 6.43243 39.1877 6.43243 39.3571 7.2792C40.575 7.61121 41.7929 7.94321 43.0477 8.28527C43.0477 8.06393 43.0477 7.8426 43.0477 7.61456C44.5013 6.86609 45.4936 6.90586 47.0739 7.2792C47.8078 7.78224 47.8078 7.78224 48.4159 8.28527C48.6512 8.32677 48.8865 8.36827 49.1289 8.41103C49.3365 8.48019 49.5441 8.54936 49.758 8.62062C50.1774 9.47997 50.1774 9.47997 50.429 10.2974C48.9732 11.9546 48.9732 11.9546 48.0385 12.0371C47.4094 11.6388 47.4094 11.6388 46.9271 10.6328C46.5097 9.54511 46.5097 9.54511 45.5012 9.33325C45.2451 9.31942 44.9891 9.30559 44.7253 9.29133C44.2824 9.84467 43.8396 10.398 43.3833 10.9681C42.251 10.7846 41.6781 10.6143 40.6992 9.96205C39.9164 9.94856 39.1333 9.94756 38.3506 9.96205C38.2399 9.85138 38.1291 9.74071 38.0151 9.62669C37.7936 9.84802 37.5722 10.0694 37.344 10.2974C37.1226 10.2974 36.9012 10.2974 36.673 10.2974C36.763 9.99307 36.8529 9.68873 36.9456 9.37517C37.2321 7.43059 36.2462 5.593 35.331 3.92565C34.4905 2.9029 34.4905 2.9029 33.3061 2.40607C32.2675 2.42207 31.5038 2.43664 30.6548 3.0663C30.2998 3.92195 30.2349 4.50031 30.1725 5.41379C30.0709 6.56087 29.9862 6.91093 29.2917 7.88703C28.0444 8.79609 26.749 9.51345 25.2656 9.96205C25.0441 9.85138 24.8227 9.74071 24.5946 9.62669C24.4008 9.79961 24.207 9.97253 24.0074 10.1507C23.2525 10.6328 23.2525 10.6328 22.4976 10.528C22.3038 10.4519 22.1101 10.3758 21.9105 10.2974C22.1388 10.1176 22.3672 9.93773 22.6025 9.75245C23.1308 9.3255 23.6566 8.89476 24.1634 8.44247C24.361 8.26609 24.5587 8.08972 24.7623 7.90799C24.9457 7.74113 25.1291 7.57426 25.318 7.40234C25.9366 6.94385 25.9366 6.94385 26.8304 6.66875C27.2184 6.47292 27.2184 6.47292 27.6142 6.27314C27.8772 5.37829 27.8772 5.37829 27.9077 4.34485C28.0957 2.94896 28.2363 2.00432 29.2498 0.991293C30.8864 -0.158569 32.7534 -0.155214 34.6599 0.236744Z" fill="#3568FD"/>
<path d="M80.6252 29.4128C82.5088 30.4439 83.8147 31.7755 84.6514 33.7724C84.8879 34.8142 84.8315 35.3568 84.6514 36.4552C83.7141 37.614 82.975 38.3834 81.4745 38.5708C78.7934 38.6848 77.0056 38.1786 74.9215 36.4552C73.915 35.2789 73.915 35.2789 73.915 34.4431C73.6935 34.4431 73.4721 34.4431 73.244 34.4431C72.8372 32.9886 72.7041 31.5849 72.9084 30.0835C74.7938 27.4842 78.1057 28.1587 80.6252 29.4128Z" fill="#EFEFEF"/>
<path d="M44.0123 23.6488C45.1634 24.2837 45.6653 24.6181 46.4028 25.7238C46.6785 27.3696 46.7608 29.0119 46.0188 30.538C44.0786 32.9776 40.7099 34.5824 37.6795 35.1138C35.134 35.2941 32.9126 35.328 30.6338 34.1077C29.3811 32.931 28.6522 31.8973 28.5368 30.1673C28.5733 28.4819 29.0183 27.3829 30.1855 26.1313C33.8875 22.6595 39.3534 21.3685 44.0123 23.6488ZM31.2707 27.9561C30.5406 28.7477 30.5406 28.7477 30.2982 29.9996C30.7458 31.4535 31.3868 31.9428 32.6468 32.7663C35.4815 33.6795 38.1395 33.1359 40.7843 31.9292C42.2078 31.15 43.6447 30.2314 44.3898 28.742C44.5202 27.5431 44.5593 26.9558 43.8236 25.9754C39.8872 22.9978 34.4623 24.8566 31.2707 27.9561Z" fill="#3568FD"/>
<path d="M33.3323 2.09307C34.5424 2.38035 34.9564 2.92031 35.6665 3.92573C37.0928 6.99493 37.0928 6.99493 36.9063 8.36657C36.6237 9.08068 36.2168 9.43497 35.6665 9.96212C35.5004 10.4601 35.5004 10.4601 35.331 10.9682C35.1286 10.9768 34.9262 10.9855 34.7176 10.9944C32.9745 11.106 32.9745 11.106 31.4726 11.9323C30.9133 12.6514 30.9133 12.6514 30.6338 13.651C30.2997 13.7003 30.2997 13.7003 29.9588 13.7506C28.1601 14.055 26.9363 14.3286 25.6011 15.6632C24.5967 14.3664 24.3935 13.2829 24.4596 11.6861C24.6905 10.4578 25.283 10.0178 26.2721 9.29141C27.0576 8.8342 27.8471 8.39967 28.6574 7.98798C29.3446 7.66091 29.3446 7.66091 29.6273 6.94393C29.6698 6.46247 29.7037 5.98021 29.7321 5.49771C29.8482 4.43955 29.9918 3.8688 30.487 2.8987C31.4365 2.14431 32.1213 2.00099 33.3323 2.09307Z" fill="#EDEDED"/>
<path d="M43.6835 3.01649C44.9328 3.43816 45.9013 4.25684 46.9088 5.08888C47.9499 5.72822 48.5557 5.76014 49.7581 5.60239C50.0971 5.31881 50.4362 5.03522 50.7856 4.74304C51.7711 3.92561 51.7711 3.92561 52.7148 3.96753C53.4487 4.26097 53.4487 4.26097 53.7842 4.59632C53.8083 5.10582 53.8124 5.61637 53.8052 6.12638C53.8022 6.40348 53.7991 6.68058 53.796 6.96608C53.7921 7.18007 53.7882 7.39405 53.7842 7.61452C52.8527 7.92489 52.0922 8.04656 51.1211 8.13851C50.8343 8.16661 50.5476 8.19471 50.2522 8.22366C48.2036 8.3757 48.2036 8.3757 47.3675 7.76124C45.9167 7.03617 44.6113 7.36265 43.0478 7.61452C43.0478 7.83586 43.0478 8.05719 43.0478 8.28523C41.6404 8.08427 40.3604 7.75705 39.0217 7.27917C38.911 6.72583 38.8002 6.17249 38.6862 5.60239C41.7188 2.85186 41.7188 2.85186 43.6835 3.01649Z" fill="#EFEFEF"/>
<path d="M71.7288 22.606C73.617 23.2809 75.2737 24.1886 76.599 25.7237C76.599 25.9451 76.599 26.1664 76.599 26.3945C76.3888 26.439 76.1786 26.4835 75.9621 26.5294C75.6879 26.5886 75.4136 26.6478 75.1311 26.7089C74.8587 26.7672 74.5862 26.8256 74.3055 26.8857C73.5695 27.0394 73.5695 27.0394 72.9084 27.4005C72.2176 27.4701 71.5252 27.5236 70.8324 27.5682C69.2718 27.6772 67.7417 27.8201 66.1981 28.0712C65.777 26.8085 65.5681 25.6849 65.8626 24.3823C67.3609 22.2136 69.3128 21.9225 71.7288 22.606Z" fill="#F1F1F1"/>
<path d="M70.8953 29.7479C70.8962 30.0276 70.897 30.3073 70.8979 30.5955C71.0045 33.6941 71.6327 35.6023 73.8992 37.7454C74.308 38.0967 74.7242 38.4398 75.1495 38.7711C75.2957 38.8921 75.4419 39.0132 75.5925 39.1379C75.5925 39.2486 75.5925 39.3592 75.5925 39.4732C74.4853 39.4732 73.3781 39.4732 72.2374 39.4732C72.2374 39.1412 72.2374 38.8092 72.2374 38.4672C71.9398 38.4464 71.6423 38.4257 71.3357 38.4043C69.9431 38.0629 69.4611 37.542 68.5467 36.455C68.3391 36.213 68.1315 35.9709 67.9176 35.7215C67.3388 34.275 67.6321 32.9357 67.8757 31.4247C67.4264 31.7974 67.4264 31.7974 67.5074 32.7465C67.5113 33.1472 67.5152 33.548 67.5192 33.9608C67.5223 34.3624 67.5253 34.764 67.5284 35.1778C67.5323 35.4886 67.5362 35.7995 67.5402 36.1197C66.4786 35.1048 66.1367 34.4696 66.0723 32.9967C66.0935 31.804 66.1835 31.4478 66.8482 30.3977C68.2285 29.5248 69.3059 29.5922 70.8953 29.7479Z" fill="#F1F1F1"/>
<path d="M34.6599 0.236742C34.6599 0.34741 34.6599 0.458077 34.6599 0.572098C33.9956 0.572098 33.3313 0.572098 32.6469 0.572098C32.6469 0.904099 32.6469 1.2361 32.6469 1.57816C32.8683 1.7995 33.0897 2.02083 33.3179 2.24887C32.7574 2.38375 32.7574 2.38375 32.1855 2.52135C30.896 2.80492 30.896 2.80492 30.2983 3.92565C30.2076 4.63508 30.2076 4.63508 30.1934 5.39283C30.08 6.53907 29.9842 6.91375 29.2917 7.88703C28.0444 8.79609 26.749 9.51345 25.2656 9.96204C25.0441 9.85137 24.8227 9.74071 24.5946 9.62669C24.4008 9.7996 24.207 9.97252 24.0074 10.1507C23.2525 10.6328 23.2525 10.6328 22.4976 10.528C22.3038 10.4519 22.1101 10.3758 21.9105 10.2974C22.1388 10.1176 22.3672 9.93773 22.6025 9.75245C23.1308 9.3255 23.6566 8.89476 24.1634 8.44246C24.361 8.26609 24.5587 8.08971 24.7623 7.90799C24.9457 7.74113 25.1291 7.57426 25.318 7.40234C25.9366 6.94385 25.9366 6.94385 26.8304 6.66875C27.2184 6.47292 27.2184 6.47292 27.6142 6.27314C27.8772 5.37829 27.8772 5.37829 27.9077 4.34484C28.0957 2.94895 28.2363 2.00432 29.2498 0.991292C30.8623 -0.17905 32.762 0.0685333 34.6599 0.236742Z" fill="#3568FD"/>
<path d="M20.4426 11.5969C21.575 11.9742 21.575 11.9742 22.204 12.6868C22.637 13.7927 22.8014 14.8194 22.917 15.9985C22.6056 16.1852 22.2942 16.372 21.9734 16.5644C20.8714 17.2552 20.8714 17.2552 20.3587 18.2621C20.2065 18.5111 20.0542 18.7601 19.8974 19.0167C19.4545 19.0167 19.0116 19.0167 18.5553 19.0167C18.4515 18.6362 18.3477 18.2558 18.2408 17.8639C18.0087 16.7403 18.0087 16.7403 17.5488 16.3338C17.317 14.7315 17.3364 13.6372 18.2408 12.2676C19.2264 11.6388 19.2264 11.6388 20.4426 11.5969Z" fill="#F4F4F4"/>
<path d="M26.8737 39.0608C29.4844 40.0854 32.226 40.052 34.9954 40.1441C35.0097 40.8147 35.0091 41.4857 34.9954 42.1563C34.8847 42.2669 34.774 42.3776 34.6599 42.4916C32.4053 42.2502 32.4053 42.2502 31.9758 41.8209C31.2935 41.754 31.2935 41.754 30.508 41.758C30.1096 41.7509 30.1096 41.7509 29.7033 41.7436C28.8598 41.7723 28.8598 41.7723 27.9497 42.4916C27.1528 42.7012 27.1528 42.7012 26.2721 42.4916C25.438 41.4669 24.848 40.3153 24.259 39.1381C23.9269 38.9167 23.5947 38.6954 23.2525 38.4674C24.6553 38 25.5375 38.4876 26.8737 39.0608Z" fill="#EAEAEA"/>
<path d="M10.5031 27.4006C10.6138 27.4006 10.7245 27.4006 10.8386 27.4006C10.9224 29.287 10.9224 29.287 10.1675 30.4188C9.72467 30.4188 9.28179 30.4188 8.82549 30.4188C8.82549 31.1935 8.82549 31.9682 8.82549 32.7663C9.04693 32.7663 9.26837 32.7663 9.49652 32.7663C9.49652 32.9877 9.49652 33.209 9.49652 33.437C10.1608 33.3264 10.8251 33.2157 11.5096 33.1017C12.1783 34.1979 12.2142 34.8433 12.0129 36.0989C11.8426 37.423 11.8372 38.2758 12.5161 39.4734C11.9625 39.6948 11.4089 39.9161 10.8386 40.1441C9.95009 39.3333 9.53711 38.7239 9.45196 37.4822C9.45282 37.254 9.45369 37.0257 9.45458 36.7906C9.45328 36.4482 9.45328 36.4482 9.45196 36.0989C9.49652 35.4492 9.49652 35.4492 9.83203 34.4431C9.61059 34.4431 9.38915 34.4431 9.161 34.4431C8.59483 33.961 8.59483 33.961 8.15447 33.1017C8.08257 32.0432 8.17488 31.0977 8.48998 30.0835C9.32876 29.308 9.32876 29.308 10.1675 28.7421C10.4593 28.0279 10.4593 28.0279 10.5031 27.4006Z" fill="#3568FD"/>
<path d="M99.0783 44.5035C99.189 44.9462 99.2997 45.3889 99.4138 45.845C96.913 47.8187 94.3844 49.4764 91.3615 50.5399C91.1401 50.4293 90.9186 50.3186 90.6905 50.2046C90.7534 49.2404 90.7534 49.2404 91.026 48.1924C91.5768 47.9489 92.1381 47.7289 92.7036 47.5217C93.3262 47.1426 93.9412 46.7507 94.5489 46.348C97.3325 44.5035 97.3325 44.5035 99.0783 44.5035Z" fill="#3568FD"/>
<path d="M23.7452 38.834C24.8424 39.2267 25.0303 39.6384 25.5381 40.668C25.6787 40.9451 25.8193 41.2222 25.9641 41.5077C26.0657 41.7217 26.1673 41.9357 26.2721 42.1562C27.0471 42.1562 27.8221 42.1562 28.6207 42.1562C28.5099 42.3775 28.3992 42.5988 28.2851 42.8269C27.4254 43.0365 27.4254 43.0365 26.6076 43.1622C26.6076 43.4942 26.6076 43.8262 26.6076 44.1683C27.2719 44.279 27.9362 44.3896 28.6207 44.5036C28.6207 44.6143 28.6207 44.725 28.6207 44.839C25.9399 45.1017 25.9399 45.1017 24.5735 44.0425C23.9235 43.1622 23.9235 43.1622 23.9235 42.4915C23.3699 42.3808 22.8163 42.2702 22.2459 42.1562C22.2459 41.6028 22.2459 41.0495 22.2459 40.4794C22.0245 40.3687 21.803 40.258 21.5749 40.144C22.6803 38.7936 22.6803 38.7936 23.7452 38.834Z" fill="#3568FD"/>
<path d="M99.0784 26.0592C101.573 28.0735 103.922 30.2308 104.782 33.437C104.647 34.1981 104.647 34.1981 104.447 34.7784C104.225 34.2251 104.004 33.6718 103.776 33.1017C103.554 33.1017 103.333 33.1017 103.105 33.1017C102.883 33.5443 102.662 33.987 102.433 34.4431C102.278 33.8828 102.278 33.8828 102.119 33.3113C101.387 31.3091 99.8735 29.906 98.4073 28.4067C98.6288 28.296 98.8502 28.1854 99.0784 28.0713C99.0784 27.4073 99.0784 26.7433 99.0784 26.0592Z" fill="#3568FD"/>
<path d="M93.3748 22.7056C95.7038 23.2569 98.0826 24.7336 99.414 26.7298C99.4559 27.6311 99.4559 27.6311 99.414 28.4066C97.0555 27.5494 95.094 26.1375 93.0392 24.7177C93.15 24.4964 93.2607 24.275 93.3748 24.047C93.1533 23.8257 92.9319 23.6043 92.7037 23.3763C92.9252 23.1549 93.1466 22.9336 93.3748 22.7056Z" fill="#3568FD"/>
<path d="M10.8386 27.0652C11.3922 27.1759 11.9458 27.2865 12.5162 27.4005C12.5162 27.9539 12.5162 28.5072 12.5162 29.0773C12.959 29.2987 13.4019 29.52 13.8582 29.748C13.8582 30.3014 13.8582 30.8547 13.8582 31.4248C12.751 31.3141 11.6438 31.2035 10.5031 31.0894C10.6138 31.7535 10.7245 32.4175 10.8386 33.1016C10.3957 33.2122 9.95285 33.3229 9.49656 33.4369C9.49656 33.2156 9.49656 32.9943 9.49656 32.7662C9.27512 32.7662 9.05368 32.7662 8.82553 32.7662C8.82553 31.9916 8.82553 31.2169 8.82553 30.4187C9.26841 30.3081 9.71128 30.1974 10.1676 30.0834C10.389 29.0874 10.6105 28.0914 10.8386 27.0652Z" fill="#3568FD"/>
<path d="M54.0149 41.7368C54.271 41.7645 54.527 41.7922 54.7908 41.8207C55.0122 42.374 55.2337 42.9273 55.4618 43.4974C56.3476 43.2761 57.2333 43.0548 58.1459 42.8267C57.742 43.663 57.3225 44.3967 56.8039 45.1742C57.136 45.3955 57.4682 45.6169 57.8104 45.8449C55.6419 45.997 54.5864 45.7087 52.7777 44.5035C52.7777 44.2822 52.7777 44.0608 52.7777 43.8328C52.5563 43.6115 52.3348 43.3901 52.1067 43.1621C52.8913 41.8413 52.8913 41.8413 54.0149 41.7368Z" fill="#3568FD"/>
<path d="M56.1328 9.29138C57.24 9.29138 58.3471 9.29138 59.4879 9.29138C59.4879 9.51272 59.4879 9.73405 59.4879 9.96209C59.82 10.0728 60.1522 10.1834 60.4944 10.2974C60.3837 10.5188 60.273 10.7401 60.1589 10.9682C59.5128 11.0599 59.5128 11.0599 58.712 11.0939C57.2668 11.2151 56.7609 11.5391 55.7973 12.6449C55.3544 12.6449 54.9115 12.6449 54.4552 12.6449C54.21 11.9818 53.9874 11.31 53.7842 10.6328C53.8949 10.4115 54.0056 10.1901 54.1197 9.96209C54.784 9.96209 55.4483 9.96209 56.1328 9.96209C56.1328 9.74076 56.1328 9.51942 56.1328 9.29138Z" fill="#3568FD"/>
<path d="M91.3615 39.4733C91.5829 39.4733 91.8044 39.4733 92.0325 39.4733C92.1432 39.9159 92.2539 40.3586 92.368 40.8147C90.558 42.0769 90.558 42.0769 89.4952 42.4915C88.5079 42.8963 87.8061 43.4774 86.9998 44.1682C86.6677 43.7256 86.3355 43.2829 85.9933 42.8268C86.5469 42.6055 87.1005 42.3841 87.6708 42.1561C87.6708 41.4921 87.6708 40.8281 87.6708 40.144C88.0283 40.1135 88.0283 40.1135 88.393 40.0824C88.8555 40.0403 88.8555 40.0403 89.3274 39.9973C89.6349 39.97 89.9425 39.9428 90.2593 39.9147C91.0131 39.889 91.0131 39.889 91.3615 39.4733Z" fill="#3568FD"/>
<path d="M50.7017 43.0993C51.0914 43.1706 51.4811 43.2419 51.8826 43.3154C52.1779 43.3755 52.4733 43.4356 52.7777 43.4975C52.8884 44.0509 52.9991 44.6042 53.1132 45.1743C52.2476 45.6069 51.5841 45.5781 50.6178 45.5935C50.1306 45.6065 50.1306 45.6065 49.6336 45.6197C48.6043 45.4913 48.3918 45.2801 47.745 44.5036C47.4128 44.2822 47.0807 44.0609 46.7385 43.8329C48.1627 42.7685 48.9792 42.7689 50.7017 43.0993Z" fill="#3568FD"/>
<path d="M31.9759 12.9802C32.1973 14.0869 32.4187 15.1936 32.6469 16.3338C30.9693 16.6691 30.9693 16.6691 29.9628 15.9984C29.9628 15.7771 29.9628 15.5558 29.9628 15.3277C29.4092 15.3277 28.8556 15.3277 28.2852 15.3277C28.1745 14.9957 28.0638 14.6637 27.9497 14.3216C28.0604 14.1003 28.1711 13.879 28.2852 13.6509C28.9549 13.4387 28.9549 13.4387 29.7741 13.2737C30.0435 13.2175 30.3129 13.1613 30.5906 13.1034C31.3048 12.9802 31.3048 12.9802 31.9759 12.9802Z" fill="#3568FD"/>
<path d="M69.5534 41.8208C70.3292 41.8837 70.3292 41.8837 71.2309 42.1562C71.7552 42.9526 71.7552 42.9526 72.2375 43.8329C72.9318 44.431 72.9318 44.431 73.5795 44.839C71.8078 45.8686 71.8078 45.8686 70.7067 45.7612C70.4368 45.6782 70.1669 45.5952 69.8889 45.5097C69.4218 45.4163 69.4218 45.4163 68.9452 45.3211C68.703 45.2727 68.4608 45.2242 68.2113 45.1744C68.3082 44.9945 68.4051 44.8147 68.5049 44.6294C68.9384 43.7146 69.2466 42.7846 69.5534 41.8208Z" fill="#3568FD"/>
<path d="M47.4094 38.8026C47.3465 39.4314 47.3465 39.4314 47.0739 40.144C46.2771 40.5003 46.2771 40.5003 45.3963 40.8147C44.8016 41.3245 44.8016 41.3245 44.3898 41.8208C44.722 42.1528 45.0541 42.4848 45.3963 42.8269C43.5335 43.7777 42.1079 43.9602 40.0281 43.8329C39.9174 43.6116 39.8067 43.3903 39.6926 43.1622C39.9763 43.0161 40.2601 42.87 40.5524 42.7195C42.5651 41.6633 44.4737 40.6074 46.2391 39.1602C46.7384 38.8026 46.7384 38.8026 47.4094 38.8026Z" fill="#EFEFEF"/>
<path d="M18.6092 40.4465C19.2573 40.4524 19.2573 40.4524 19.9185 40.4583C20.3514 40.4613 20.7843 40.4644 21.2304 40.4675C21.5655 40.4714 21.9007 40.4753 22.2461 40.4793C22.2461 41.0326 22.2461 41.586 22.2461 42.1561C21.2186 42.7544 20.4944 42.9035 19.3103 42.8687C19.0422 42.8626 18.774 42.8566 18.4978 42.8503C18.2954 42.8426 18.0929 42.8348 17.8844 42.8268C17.8844 42.6054 17.8844 42.3841 17.8844 42.1561C17.5522 42.1561 17.2201 42.1561 16.8779 42.1561C17.2546 40.4884 17.2546 40.4884 18.6092 40.4465Z" fill="#3568FD"/>
<path d="M67.8758 31.7603C68.5468 32.7663 68.5468 32.7663 68.8823 33.437C69.5616 33.6557 69.5616 33.6557 70.2244 33.7724C70.3351 33.5511 70.4458 33.3297 70.5599 33.1017C70.5599 33.5443 70.5599 33.987 70.5599 34.4431C70.0063 34.4431 69.4527 34.4431 68.8823 34.4431C68.993 34.6644 69.1037 34.8858 69.2178 35.1138C70.0658 35.3336 70.0658 35.3336 70.8954 35.4492C71.0061 35.2278 71.1168 35.0065 71.2309 34.7785C71.2309 35.2211 71.2309 35.6638 71.2309 36.1199C70.8987 36.2859 70.8987 36.2859 70.5599 36.4552C70.4491 36.7872 70.3384 37.1192 70.2244 37.4613C69.6372 37.4403 69.6372 37.4403 68.8823 37.1259C67.8015 35.7244 67.4255 34.8924 67.6241 33.1226C67.7002 32.6671 67.7814 32.2123 67.8758 31.7603Z" fill="#ECECEC"/>
<path d="M21.9105 18.0105C21.9196 18.5624 21.9261 19.1144 21.9315 19.6663C21.9354 19.9737 21.9393 20.281 21.9433 20.5977C21.9105 21.364 21.9105 21.364 21.575 21.6994C20.3262 21.798 19.972 21.7491 18.8909 21.0287C19.2264 20.358 19.2264 20.358 19.8975 19.6873C20.0082 19.3553 20.1189 19.0233 20.233 18.6812C21.2395 18.0105 21.2395 18.0105 21.9105 18.0105Z" fill="#3568FD"/>
<path d="M32.7308 0.173882C33.2731 0.187499 33.2731 0.187499 33.8264 0.201392C34.1015 0.213064 34.3765 0.224736 34.6599 0.236761C34.6599 0.347429 34.6599 0.458096 34.6599 0.572117C33.9956 0.572117 33.3313 0.572117 32.6469 0.572117C32.6469 0.904118 32.6469 1.23612 32.6469 1.57818C32.8683 1.79952 33.0897 2.02085 33.3179 2.24889C32.7678 2.38377 32.7678 2.38377 32.2065 2.52137C31.0978 2.87823 30.6507 3.03582 29.9628 3.92567C29.6273 2.9196 29.6273 2.9196 29.9418 2.18601C30.0594 1.98543 30.1771 1.78484 30.2983 1.57818C29.9661 1.46751 29.634 1.35685 29.2917 1.24283C30.4277 0.192804 31.2079 0.124247 32.7308 0.173882Z" fill="#3568FD"/>
<path d="M32.6469 0.572174C34.7942 0.407076 34.7942 0.407076 35.8133 1.24288C36.0728 1.57489 36.0728 1.57489 36.3376 1.91359C35.8947 2.35626 35.4518 2.79893 34.9955 3.25502C34.7464 3.10285 34.4973 2.95068 34.2406 2.7939C33.496 2.35411 32.7544 1.9529 31.9759 1.57824C32.1973 1.57824 32.4188 1.57824 32.6469 1.57824C32.6469 1.24624 32.6469 0.914236 32.6469 0.572174Z" fill="#3568FD"/>
<path d="M37.0085 7.94995C37.344 8.95602 37.344 8.95602 37.344 9.96208C37.5654 9.74075 37.7869 9.51941 38.015 9.29137C38.015 10.6328 38.015 10.6328 37.5117 11.2197C37.3457 11.358 37.1796 11.4963 37.0085 11.6389C37.0085 11.4175 37.0085 11.1962 37.0085 10.9681C36.3018 11.0538 35.596 11.1458 34.8905 11.2406C34.4974 11.2912 34.1043 11.3418 33.6992 11.3939C32.6487 11.6384 32.2789 11.8038 31.6403 12.6449C31.4188 12.5343 31.1974 12.4236 30.9692 12.3096C31.4515 11.6389 31.4515 11.6389 32.3113 10.9681C33.3273 10.8493 34.3126 10.8899 35.3309 10.9681C35.372 10.7658 35.4131 10.5635 35.4554 10.3551C35.745 9.35537 36.3362 8.73032 37.0085 7.94995Z" fill="#3568FD"/>
<path d="M53.7843 2.24902C54.6123 2.63526 55.1424 2.93578 55.7973 3.59044C55.8629 4.53625 55.8629 4.53625 55.8393 5.64449C55.8332 6.01194 55.8272 6.37939 55.8209 6.75798C55.8131 7.0407 55.8053 7.32342 55.7973 7.61471C55.6866 7.61471 55.5759 7.61471 55.4618 7.61471C55.4618 6.50803 55.4618 5.40136 55.4618 4.26115C55.1297 4.26115 54.7975 4.26115 54.4553 4.26115C54.3446 5.14649 54.2338 6.03183 54.1198 6.944C54.009 6.944 53.8983 6.944 53.7843 6.944C53.7427 6.39412 53.7427 6.39412 53.7004 5.83313C53.5706 4.58552 53.5706 4.58552 52.7567 3.94676C52.5422 3.82917 52.3277 3.71159 52.1067 3.59044C52.4285 3.53857 52.4285 3.53857 52.7567 3.48565C52.9851 3.40956 53.2135 3.33348 53.4487 3.25509C53.5595 2.92309 53.6702 2.59109 53.7843 2.24902Z" fill="#3568FD"/>
<path d="M36.673 4.59644C37.2266 4.59644 37.7802 4.59644 38.3506 4.59644C38.7396 5.76304 38.6104 6.05261 38.2038 7.17448C38.1073 7.44553 38.0109 7.71657 37.9115 7.99584C37.835 8.20204 37.7584 8.40824 37.6795 8.6207C36.9728 8.04781 36.6938 7.7751 36.5747 6.85615C36.5864 6.5877 36.5981 6.31924 36.6101 6.04265C36.6192 5.77161 36.6283 5.50056 36.6376 5.2213C36.6493 5.01509 36.661 4.80889 36.673 4.59644Z" fill="#3568FD"/>
<path d="M31.7033 8.07566C32.0043 8.17941 32.0043 8.17941 32.3114 8.28526C32.0809 8.49146 31.8503 8.69767 31.6128 8.91012C31.1594 9.31669 31.1594 9.31669 30.6967 9.73148C30.397 9.99993 30.0973 10.2684 29.7885 10.545C29.3072 10.9836 28.8341 11.4323 28.3861 11.9047C27.9497 12.3095 27.9497 12.3095 27.2787 12.3095C27.7271 11.3359 28.234 10.5622 28.9353 9.75244C29.1044 9.55445 29.2735 9.35646 29.4477 9.15247C30.6631 7.89744 30.6631 7.89744 31.7033 8.07566Z" fill="#3568FD"/>
<path d="M99.7494 42.4915C99.9708 42.8235 100.192 43.1555 100.42 43.4975C100.642 43.4975 100.863 43.4975 101.091 43.4975C101.008 44.1263 101.008 44.1263 100.756 44.8389C100.064 45.2581 100.064 45.2581 99.4139 45.5097C99.3032 45.1776 99.1925 44.8456 99.0784 44.5036C98.4141 44.7249 97.7498 44.9463 97.0653 45.1743C97.96 44.28 98.8547 43.3857 99.7494 42.4915Z" fill="#3568FD"/>
<path d="M27.2787 13.9863C27.6109 14.097 27.943 14.2077 28.2852 14.3217C28.2852 14.543 28.2852 14.7644 28.2852 14.9924C28.8388 15.1031 29.3924 15.2137 29.9628 15.3277C29.7552 15.39 29.5476 15.4522 29.3337 15.5164C28.2664 16.238 28.22 17.1304 27.9497 18.3459C27.839 18.3459 27.7283 18.3459 27.6142 18.3459C27.5035 17.5713 27.3928 16.7966 27.2787 15.9985C26.6144 15.9985 25.9501 15.9985 25.2656 15.9985C25.7446 15.041 26.406 14.5886 27.2787 13.9863Z" fill="#3568FD"/>
<path d="M14.5293 21.6994C14.3078 21.6994 14.0864 21.6994 13.8582 21.6994C13.8582 22.1421 13.8582 22.5847 13.8582 23.0408C14.0797 23.0408 14.3011 23.0408 14.5293 23.0408C14.5293 23.8155 14.5293 24.5902 14.5293 25.3883C14.3078 25.2777 14.0864 25.167 13.8582 25.053C13.969 24.6103 14.0797 24.1676 14.1937 23.7115C13.6401 23.8222 13.0866 23.9329 12.5162 24.0469C12.6269 23.4936 12.7376 22.9402 12.8517 22.3701C12.4088 22.4808 11.9659 22.5915 11.5096 22.7055C12.5713 21.5961 13.0187 21.2464 14.5293 21.6994Z" fill="#3568FD"/>
<path d="M10.5031 27.4006C10.6138 27.4006 10.7245 27.4006 10.8386 27.4006C10.9225 29.287 10.9225 29.287 10.1676 30.4188C9.72471 30.4188 9.28183 30.4188 8.82554 30.4188C8.82554 31.4148 8.82554 32.4108 8.82554 33.437C8.6041 33.3264 8.38266 33.2157 8.15451 33.1017C8.17875 32.0709 8.24468 31.087 8.49002 30.0835C9.3288 29.308 9.3288 29.308 10.1676 28.7421C10.4594 28.0279 10.4594 28.0279 10.5031 27.4006Z" fill="#3568FD"/>
<path d="M54.4552 4.26111C54.7874 4.26111 55.1195 4.26111 55.4617 4.26111C55.4617 5.58911 55.4617 6.91712 55.4617 8.28537C54.1197 7.61466 54.1197 7.61466 53.7842 6.94395C53.8982 6.29158 53.8982 6.29158 54.0987 5.56061C54.164 5.31766 54.2293 5.07471 54.2966 4.8244C54.349 4.63851 54.4013 4.45263 54.4552 4.26111Z" fill="#3568FD"/>
<path d="M28.2852 42.4915C28.5066 42.7128 28.728 42.9341 28.9562 43.1622C28.8304 43.8748 28.8304 43.8748 28.6207 44.5036C27.9564 44.5036 27.2921 44.5036 26.6076 44.5036C26.4969 43.9503 26.3862 43.3969 26.2721 42.8268C27.2367 42.6172 27.2367 42.6172 28.2852 42.4915Z" fill="#3568FD"/>
<path d="M17.2132 13.651C17.3239 13.651 17.4347 13.651 17.5487 13.651C17.6143 14.3169 17.6798 14.9828 17.7453 15.6487C17.8596 16.4344 17.8596 16.4344 18.5553 17.3399C18.5972 18.2412 18.5972 18.2412 18.5553 19.0167C19.1089 18.906 19.6625 18.7953 20.2328 18.6813C20.2328 19.0133 20.2328 19.3453 20.2328 19.6874C19.4578 19.7981 18.6828 19.9087 17.8843 20.0227C17.8538 19.7018 17.8538 19.7018 17.8227 19.3743C17.7945 19.0972 17.7664 18.8201 17.7375 18.5346C17.7102 18.2584 17.683 17.9821 17.6549 17.6975C17.6194 17.009 17.6194 17.009 17.2132 16.6692C17.1891 16.1597 17.1851 15.6492 17.1923 15.1391C17.1953 14.862 17.1983 14.5849 17.2014 14.2994C17.2053 14.0855 17.2092 13.8715 17.2132 13.651Z" fill="#3568FD"/>
<path d="M98.0718 25.7238C98.404 25.8344 98.7362 25.9451 99.0784 26.0591C99.1891 26.8338 99.2998 27.6085 99.4139 28.4066C97.8447 27.9113 97.8447 27.9113 97.296 27.0233C97.2199 26.8158 97.1437 26.6083 97.0653 26.3945C97.3975 26.1731 97.7296 25.9518 98.0718 25.7238Z" fill="#3568FD"/>
<path d="M47.4094 2.91961C47.1879 3.58362 46.9665 4.24762 46.7384 4.93174C45.7706 4.49813 45.1037 4.0399 44.3898 3.25497C45.5393 2.71237 46.195 2.47006 47.4094 2.91961Z" fill="#3568FD"/>
<path d="M22.9171 15.3278C23.1385 15.6598 23.3599 15.9918 23.5881 16.3338C23.1565 16.7271 22.7227 17.1179 22.288 17.5076C22.0467 17.7254 21.8053 17.9433 21.5567 18.1678C20.904 18.6813 20.904 18.6813 20.233 18.6813C20.6561 17.3772 21.0559 16.7048 22.246 15.9985C22.4675 15.9985 22.6889 15.9985 22.9171 15.9985C22.9171 15.7771 22.9171 15.5558 22.9171 15.3278Z" fill="#3568FD"/>
<path d="M66.1981 11.3036C66.641 11.6356 67.0839 11.9676 67.5402 12.3097C67.2047 12.9804 67.2047 12.9804 66.5336 13.6511C66.4002 14.3178 66.2861 14.989 66.1981 15.6632C66.0874 15.6632 65.9767 15.6632 65.8626 15.6632C65.8626 14.8885 65.8626 14.1139 65.8626 13.3157C64.8662 13.1497 64.8662 13.1497 63.8495 12.9804C63.8495 12.8697 63.8495 12.759 63.8495 12.645C64.6246 12.7557 65.3996 12.8663 66.1981 12.9804C66.1981 12.427 66.1981 11.8737 66.1981 11.3036Z" fill="#3568FD"/>
<path d="M51.7528 1.84802C52.4299 1.86986 53.1071 1.89169 53.7842 1.91352C53.1165 2.27107 52.5392 2.56546 51.7921 2.70999C50.8163 3.00556 50.187 3.60302 49.4226 4.26101C48.9797 4.03967 48.5368 3.81834 48.0805 3.5903C48.4542 3.43813 48.8279 3.28596 49.2129 3.12918C50.1331 2.71686 50.8058 1.94306 51.7528 1.84802Z" fill="#3568FD"/>
<path d="M13.1872 29.4127C13.4086 29.5234 13.6301 29.6341 13.8582 29.7481C13.8582 30.3014 13.8582 30.8547 13.8582 31.4249C12.8618 31.3142 11.8653 31.2035 10.8386 31.0895C11.2815 30.8682 11.7244 30.6468 12.1807 30.4188C12.7541 29.9019 12.7541 29.9019 13.1872 29.4127Z" fill="#3568FD"/>
<path d="M87.3354 40.144C87.4461 40.144 87.5569 40.144 87.6709 40.144C87.6709 40.808 87.6709 41.472 87.6709 42.1562C86.2884 42.8262 85.1707 42.8867 83.6448 42.8269C83.6448 42.7162 83.6448 42.6055 83.6448 42.4915C84.752 42.2702 85.8592 42.0489 86.9999 41.8208C87.1106 41.2675 87.2213 40.7141 87.3354 40.144Z" fill="#3568FD"/>
<path d="M56.4683 8.95605C59.8748 8.74471 59.8748 8.74471 61.0606 9.62676C61.2059 9.84809 61.3512 10.0694 61.5009 10.2975C61.1688 10.4081 60.8366 10.5188 60.4944 10.6328C60.1623 10.4115 59.8301 10.1902 59.4879 9.96211C59.4879 9.74078 59.4879 9.51944 59.4879 9.2914C58.4914 9.2914 57.4949 9.2914 56.4683 9.2914C56.4683 9.18073 56.4683 9.07007 56.4683 8.95605Z" fill="#3568FD"/>
<path d="M32.6469 0.572144C33.2005 0.572144 33.7541 0.572144 34.3245 0.572144C34.4352 1.12548 34.5459 1.67882 34.66 2.24892C33.7742 2.13825 32.8885 2.02758 31.9759 1.91356C32.1973 1.8029 32.4188 1.69223 32.6469 1.57821C32.6469 1.24621 32.6469 0.914206 32.6469 0.572144Z" fill="#3568FD"/>
<path d="M58.4813 41.8208C59.0349 41.9315 59.5885 42.0421 60.1588 42.1562C60.2695 42.5988 60.3803 43.0415 60.4943 43.4976C60.1622 43.4976 59.83 43.4976 59.4878 43.4976C59.4878 43.2762 59.4878 43.0549 59.4878 42.8269C59.0449 42.8269 58.602 42.8269 58.1458 42.8269C58.2565 42.4949 58.3672 42.1629 58.4813 41.8208Z" fill="#3568FD"/>
<path d="M54.1197 9.96204C54.784 10.128 54.784 10.128 55.4617 10.2974C55.351 10.9614 55.2403 11.6254 55.1262 12.3095C54.9048 12.3095 54.6834 12.3095 54.4552 12.3095C54.0987 11.5131 54.0987 11.5131 53.7842 10.6327C53.8949 10.4114 54.0056 10.1901 54.1197 9.96204Z" fill="#3568FD"/>
<path d="M29.2918 41.8208C29.5132 42.1528 29.7346 42.4848 29.9628 42.8269C30.2949 43.0482 30.6271 43.2695 30.9693 43.4976C30.305 43.7189 29.6407 43.9402 28.9562 44.1683C28.7465 43.3718 28.7465 43.3718 28.6207 42.4915C28.8422 42.2702 29.0636 42.0488 29.2918 41.8208Z" fill="#3568FD"/>
<path d="M90.355 37.4612C90.6871 37.4612 91.0193 37.4612 91.3615 37.4612C91.3615 38.0145 91.3615 38.5679 91.3615 39.138C90.6972 39.47 90.6972 39.47 90.0195 39.8087C90.1302 39.034 90.2409 38.2593 90.355 37.4612Z" fill="#DFDFDF"/>
<path d="M2.11526 41.8208C2.79315 42.0226 3.4644 42.2477 4.12834 42.4915C4.23906 42.7128 4.34978 42.9342 4.46385 43.1622C4.13169 43.6602 4.13169 43.6602 3.79283 44.1683C2.11526 42.1981 2.11526 42.1981 2.11526 41.8208Z" fill="#3568FD"/>
<path d="M32.6469 15.3278C32.5361 15.7704 32.4254 16.2131 32.3114 16.6692C31.3258 16.5434 31.3258 16.5434 30.2983 16.3338C30.1876 16.1125 30.0768 15.8912 29.9628 15.6631C30.8897 15.4628 31.6941 15.3278 32.6469 15.3278Z" fill="#3568FD"/>
<path d="M93.0392 28.7421C94.3813 30.2931 94.3813 30.2931 94.3813 31.4249C93.8277 31.0929 93.2741 30.7609 92.7037 30.4188C92.8145 29.8655 92.9252 29.3122 93.0392 28.7421Z" fill="#3568FD"/>
<path d="M19.8974 18.6813C20.0081 19.0133 20.1188 19.3453 20.2329 19.6873C19.4579 19.798 18.6828 19.9087 17.8843 20.0227C17.8843 19.6907 17.8843 19.3587 17.8843 19.0166C18.5486 18.906 19.2129 18.7953 19.8974 18.6813Z" fill="#3568FD"/>
<path d="M37.3441 14.9923C37.4548 15.2136 37.5656 15.435 37.6796 15.663C38.0118 15.7737 38.3439 15.8844 38.6862 15.9984C38.354 16.1644 38.354 16.1644 38.0151 16.3337C37.9044 16.6657 37.7937 16.9977 37.6796 17.3398C37.4582 17.3398 37.2368 17.3398 37.0086 17.3398C36.7989 16.732 36.7989 16.732 36.6731 15.9984C36.8945 15.6664 37.116 15.3344 37.3441 14.9923Z" fill="#EBEBEB"/>
<path d="M31.7243 8.05478C32.015 8.16891 32.015 8.16891 32.3115 8.28534C31.6472 8.72801 30.9829 9.17068 30.2984 9.62676C30.077 9.40543 29.8555 9.18409 29.6274 8.95605C30.7836 7.92419 30.7836 7.92419 31.7243 8.05478Z" fill="#3568FD"/>
<path d="M50.0935 5.2671C49.9828 5.48844 49.8721 5.70977 49.758 5.93781C48.7934 5.97973 48.7934 5.97973 47.7449 5.93781C47.5235 5.71648 47.3021 5.49514 47.0739 5.2671C48.1896 4.89538 48.9601 4.98388 50.0935 5.2671Z" fill="#3568FD"/>
</svg>
